# Blender v2.62 (sub 0) OBJ File: ''
# www.blender.org
mtllib highrise-1.mtl
o Mesh.004_Mesh.002_SketchUp.001_ID10
v 319.732330 1673.228394 -183.883850
v 173.669342 1673.228638 -589.789429
v 173.669342 1673.228394 -183.883850
v 237.236298 1673.228638 -460.031738
v 237.102158 1673.228638 -461.050720
v 237.629623 1673.228638 -459.082214
v 238.255280 1673.228638 -458.266815
v 239.070648 1673.228638 -457.641144
v 240.020187 1673.228638 -457.247833
v 241.039169 1673.228638 -457.113678
v 242.058121 1673.228638 -457.247833
v 243.007660 1673.228638 -457.641144
v 243.823029 1673.228638 -458.266815
v 244.448715 1673.228638 -459.082214
v 244.842010 1673.228638 -460.031738
v 244.976181 1673.228638 -461.050720
v 237.629623 1673.228638 -463.019196
v 319.732330 1673.228638 -589.789429
v 237.236298 1673.228638 -462.069702
v 238.255280 1673.228638 -463.834595
v 239.070648 1673.228638 -464.460266
v 240.020187 1673.228638 -464.853577
v 241.039169 1673.228638 -464.987701
v 242.058121 1673.228638 -464.853577
v 243.007660 1673.228638 -464.460266
v 243.823029 1673.228638 -463.834595
v 244.448715 1673.228638 -463.019196
v 244.842010 1673.228638 -462.069702
v 319.732330 1673.228638 -433.490143
v 319.732330 1673.228394 -183.883850
v 173.669342 1574.803223 -183.883881
v 319.732330 1574.803223 -183.883881
v 173.669342 1673.228394 -183.883850
v 319.732330 1574.803467 -433.490204
v 319.732330 1673.228394 -183.883850
v 319.732330 1574.803223 -183.883881
v 319.732330 1673.228638 -433.490143
v 457.133911 1673.228638 -433.490143
v 457.133911 1673.228638 -589.789429
v 173.669342 1673.228638 -589.789429
v 319.732330 1574.803467 -589.789429
v 173.669342 1574.803467 -589.789429
v 319.732330 1673.228638 -589.789429
v 173.669342 1673.228638 -589.789429
v 173.669342 1574.803223 -183.883881
v 173.669342 1673.228394 -183.883850
v 173.669342 1574.803467 -589.789429
v 457.133911 1673.228638 -433.490143
v 319.732330 1574.803467 -433.490204
v 457.133911 1574.803467 -433.490204
v 319.732330 1673.228638 -433.490143
v 457.133911 1574.803467 -589.789429
v 457.133911 1673.228638 -433.490143
v 457.133911 1574.803467 -433.490204
v 457.133911 1673.228638 -589.789429
v 457.133911 1574.803467 -589.789429
v 457.133911 1673.228638 -589.789429
vn 0.000000 1.000000 0.000001
vn -0.000005 1.000000 0.000002
vn 0.000000 1.000000 -0.000000
vn -0.000008 1.000000 0.000003
vn -0.000002 1.000000 0.000001
vn -0.000001 1.000000 0.000001
vn 0.000001 1.000000 0.000001
vn 0.000002 1.000000 0.000000
vn -1.000000 -0.000000 -0.000000
vn 0.000000 -0.000000 1.000000
vn 1.000000 -0.000000 0.000000
vn 0.000000 0.000000 -1.000000
vn 0.000000 -0.000001 1.000000
usemtl material
s off
f 1//1 2//1 3//1
f 2//2 1//2 4//2
f 2//3 4//3 5//3
f 4//4 1//4 6//4
f 6//5 1//5 7//5
f 7//6 1//6 8//6
f 8//1 1//1 9//1
f 9//1 1//1 10//1
f 10//1 1//1 11//1
f 11//1 1//1 12//1
f 12//7 1//7 13//7
f 13//7 1//7 14//7
f 14//7 1//7 15//7
f 15//8 1//8 16//8
f 2//3 17//3 18//3
f 17//3 2//3 19//3
f 19//3 2//3 5//3
f 18//3 17//3 20//3
f 18//3 20//3 21//3
f 18//3 21//3 22//3
f 18//3 22//3 23//3
f 18//3 23//3 24//3
f 18//3 24//3 25//3
f 18//3 25//3 26//3
f 18//3 26//3 27//3
f 18//3 27//3 28//3
f 18//3 28//3 16//3
f 16//7 1//7 18//7
f 18//9 1//9 29//9
f 30//10 31//10 32//10
f 31//10 30//10 33//10
f 34//11 35//11 36//11
f 35//11 34//11 37//11
f 38//3 18//3 29//3
f 18//3 38//3 39//3
f 40//12 41//12 42//12
f 41//12 40//12 43//12
f 44//9 45//9 46//9
f 45//9 44//9 47//9
f 48//13 49//13 50//13
f 49//13 48//13 51//13
f 52//11 53//11 54//11
f 53//11 52//11 55//11
f 43//12 56//12 41//12
f 56//12 43//12 57//12
o Mesh.003_Mesh_SketchUp.002_ID16
v 462.846313 1330.978149 -306.955383
v 462.846313 1330.978149 -308.993347
v 462.712189 1330.978149 -307.974365
v 463.239655 1330.978149 -306.005859
v 463.239655 1330.978149 -309.942871
v 463.865295 1330.978149 -305.190491
v 463.865295 1330.978149 -310.758240
v 464.680664 1330.978149 -304.564819
v 464.680664 1330.978149 -311.383911
v 465.630219 1330.978149 -304.171509
v 465.630219 1330.978149 -311.777222
v 466.649200 1330.978149 -304.037354
v 466.649200 1330.978149 -311.911377
v 467.668152 1330.978149 -304.171509
v 467.668152 1330.978149 -311.777222
v 468.617676 1330.978149 -304.564819
v 468.617676 1330.978149 -311.383911
v 469.433044 1330.978149 -305.190491
v 469.433044 1330.978149 -310.758240
v 470.058746 1330.978149 -306.005859
v 470.058746 1330.978149 -309.942871
v 470.452026 1330.978149 -306.955383
v 470.452026 1330.978149 -308.993347
v 470.586212 1330.978149 -307.974365
v 470.452026 1134.127808 -308.993408
v 470.586212 1330.978149 -307.974365
v 470.586212 1134.127808 -307.974426
v 470.452026 1330.978149 -308.993347
v 470.058746 1134.127808 -309.942932
v 470.058746 1330.978149 -309.942871
v 469.433044 1134.127808 -310.758301
v 469.433044 1330.978149 -310.758240
v 468.617676 1330.978149 -311.383911
v 468.617676 1134.127808 -311.383972
v 467.668152 1330.978149 -311.777222
v 467.668152 1134.127808 -311.777283
v 466.649200 1330.978149 -311.911377
v 466.649200 1134.127808 -311.911438
v 465.630219 1330.978149 -311.777222
v 465.630219 1134.127808 -311.777283
v 464.680664 1330.978149 -311.383911
v 464.680664 1134.127808 -311.383972
v 463.865295 1330.978149 -310.758240
v 463.865295 1134.127808 -310.758301
v 463.239655 1134.127808 -309.942932
v 463.239655 1330.978149 -309.942871
v 462.846313 1134.127808 -308.993408
v 462.846313 1330.978149 -308.993347
v 462.712189 1134.127808 -307.974426
v 462.712189 1330.978149 -307.974365
v 462.846313 1134.127808 -306.955444
v 462.846313 1330.978149 -306.955383
v 463.239655 1134.127808 -306.005920
v 463.239655 1330.978149 -306.005859
v 463.865295 1134.127808 -305.190552
v 463.865295 1330.978149 -305.190491
v 464.680664 1330.978149 -304.564819
v 464.680664 1134.127808 -304.564880
v 465.630219 1330.978149 -304.171509
v 465.630219 1134.127808 -304.171570
v 466.649200 1330.978149 -304.037354
v 466.649200 1134.127808 -304.037415
v 467.668152 1330.978149 -304.171509
v 467.668152 1134.127808 -304.171570
v 468.617676 1330.978149 -304.564819
v 468.617676 1134.127808 -304.564880
v 469.433044 1330.978149 -305.190491
v 469.433044 1134.127808 -305.190552
v 470.058746 1134.127808 -306.005920
v 470.058746 1330.978149 -306.005859
v 470.452026 1134.127808 -306.955444
v 470.452026 1330.978149 -306.955383
vn 0.965911 0.000000 -0.258797
vn 0.865993 0.000000 -0.499985
vn 0.707083 0.000000 -0.707114
vn 0.499985 0.000000 -0.865993
vn 0.258797 0.000000 -0.965911
vn -0.258797 0.000000 -0.965911
vn -0.499985 0.000000 -0.866024
vn -0.707114 0.000000 -0.707083
vn -0.865993 0.000000 -0.499985
vn -0.965911 0.000000 -0.258797
vn -0.999969 0.000000 0.000000
vn -0.965911 0.000000 0.258797
vn -0.865993 0.000000 0.499985
vn -0.707114 0.000000 0.707083
vn -0.499985 0.000000 0.866024
vn -0.258797 0.000000 0.965911
vn 0.258797 0.000000 0.965911
vn 0.499985 0.000000 0.865993
vn 0.707083 0.000000 0.707114
vn 0.865993 0.000000 0.499985
vn 0.965911 0.000000 0.258797
usemtl material
s off
f 58//3 59//3 60//3
f 59//3 58//3 61//3
f 59//3 61//3 62//3
f 62//3 61//3 63//3
f 62//3 63//3 64//3
f 64//3 63//3 65//3
f 64//3 65//3 66//3
f 66//3 65//3 67//3
f 66//3 67//3 68//3
f 68//3 67//3 69//3
f 68//3 69//3 70//3
f 70//3 69//3 71//3
f 70//3 71//3 72//3
f 72//3 71//3 73//3
f 72//3 73//3 74//3
f 74//3 73//3 75//3
f 74//3 75//3 76//3
f 76//3 75//3 77//3
f 76//3 77//3 78//3
f 78//3 77//3 79//3
f 78//3 79//3 80//3
f 80//3 79//3 81//3
s 1
f 82//14 83//11 84//11
f 83//11 82//14 85//14
f 86//15 85//14 82//14
f 85//14 86//15 87//15
f 88//16 87//15 86//15
f 87//15 88//16 89//16
f 90//17 88//16 91//17
f 88//16 90//17 89//16
f 92//18 91//17 93//18
f 91//17 92//18 90//17
f 94//12 93//18 95//12
f 93//18 94//12 92//18
f 96//19 95//12 97//19
f 95//12 96//19 94//12
f 98//20 97//19 99//20
f 97//19 98//20 96//19
f 100//21 99//20 101//21
f 99//20 100//21 98//20
f 100//21 102//22 103//22
f 102//22 100//21 101//21
f 103//22 104//23 105//23
f 104//23 103//22 102//22
f 105//23 106//24 107//9
f 106//24 105//23 104//23
f 107//9 108//25 109//25
f 108//25 107//9 106//24
f 109//25 110//26 111//26
f 110//26 109//25 108//25
f 111//26 112//27 113//27
f 112//27 111//26 110//26
f 114//28 112//27 115//28
f 112//27 114//28 113//27
f 116//29 115//28 117//29
f 115//28 116//29 114//28
f 118//10 117//29 119//10
f 117//29 118//10 116//29
f 120//30 119//10 121//30
f 119//10 120//30 118//10
f 122//31 121//30 123//31
f 121//30 122//31 120//30
f 124//32 123//31 125//32
f 123//31 124//32 122//31
f 126//33 124//32 125//32
f 124//32 126//33 127//33
f 128//34 127//33 126//33
f 127//33 128//34 129//34
f 84//11 129//34 128//34
f 129//34 84//11 83//11
o Mesh.002_Cube.001
v 1.000000 -1.000000 -1.000000
v 1.000000 -1.000000 1.000000
v -1.000000 -1.000000 1.000000
v -1.000000 -1.000000 -1.000000
v 1.000000 1.000000 -0.999999
v -1.000000 1.000000 -1.000000
v -1.000000 1.000000 1.000000
v 0.999999 1.000000 1.000001
vn 0.000000 -1.000000 -0.000000
vn 1.000000 -0.000000 0.000001
vn 1.000000 0.000001 0.000000
vn 0.000000 0.000001 -1.000000
vn 0.000001 0.000000 -1.000000
usemtl Material.002
s off
f 130//35 131//35 132//35
f 130//35 132//35 133//35
f 134//3 135//3 136//3
f 134//3 136//3 137//3
f 130//36 134//36 137//36
f 130//37 137//37 131//37
f 131//13 137//13 136//13
f 131//10 136//10 132//10
f 132//9 136//9 135//9
f 132//9 135//9 133//9
f 134//38 130//38 133//38
f 134//39 133//39 135//39
o Mesh.001_Mesh.001_Cube.001
v 1.000000 -1.000000 -1.000000
v 1.000000 -1.000000 1.000000
v -1.000000 -1.000000 1.000000
v -1.000000 -1.000000 -1.000000
v 1.000000 1.000000 -0.999999
v -1.000000 1.000000 -1.000000
v -1.000000 1.000000 1.000000
v 0.999999 1.000000 1.000001
usemtl Material.001
s off
f 138//35 139//35 140//35
f 138//35 140//35 141//35
f 142//3 143//3 144//3
f 142//3 144//3 145//3
f 138//36 142//36 145//36
f 138//37 145//37 139//37
f 139//13 145//13 144//13
f 139//10 144//10 140//10
f 140//9 144//9 143//9
f 140//9 143//9 141//9
f 142//38 138//38 141//38
f 142//39 141//39 143//39
o Mesh_Mesh.003_SketchUp_ID2
v 787.401550 0.000256 -787.401550
v 0.000000 0.000000 0.000000
v 0.000000 0.000256 -787.401550
v 787.401550 0.000000 0.000000
v 787.401550 1574.803223 0.000514
v 0.000000 0.000000 0.000000
v 787.401550 0.000000 0.000000
v 0.000000 1574.803223 0.000514
v 0.000000 1574.803467 -787.401062
v 0.000000 0.000000 0.000000
v 0.000000 1574.803223 0.000514
v 0.000000 0.000256 -787.401550
v 0.000000 1574.803467 -787.401062
v 787.401550 0.000256 -787.401550
v 0.000000 0.000256 -787.401550
v 787.401550 1574.803467 -787.401062
v 787.401550 0.000256 -787.401550
v 787.401550 1574.803223 0.000514
v 787.401550 0.000000 0.000000
v 787.401550 1574.803467 -787.401062
v 0.000000 1574.803223 0.000514
v 173.669342 1574.803223 -183.883881
v 0.000000 1574.803467 -787.401062
v 787.401550 1574.803223 0.000514
v 319.732330 1574.803223 -183.883881
v 319.732330 1574.803467 -433.490204
v 457.133911 1574.803467 -433.490204
v 457.133911 1574.803467 -589.789429
v 173.669342 1574.803467 -589.789429
v 787.401550 1574.803467 -787.401062
v 319.732330 1574.803467 -589.789429
vn 0.000001 1.000000 0.000000
usemtl material
s off
f 146//35 147//35 148//35
f 147//35 146//35 149//35
f 150//10 151//10 152//10
f 151//10 150//10 153//10
f 154//9 155//9 156//9
f 155//9 154//9 157//9
f 158//12 159//12 160//12
f 159//12 158//12 161//12
f 162//11 163//11 164//11
f 163//11 162//11 165//11
f 166//3 167//3 168//3
f 167//3 166//3 169//3
f 167//3 169//3 170//3
f 170//1 169//1 171//1
f 171//1 169//1 172//1
f 172//40 169//40 173//40
f 168//3 174//3 175//3
f 174//6 168//6 167//6
f 175//3 174//3 176//3
f 175//3 176//3 173//3
f 175//3 173//3 169//3
o Cube
v 1.000000 -1.000000 -1.000000
v 1.000000 -1.000000 1.000000
v -1.000000 -1.000000 1.000000
v -1.000000 -1.000000 -1.000000
v 1.000000 1.000000 -0.999999
v 0.999999 1.000000 1.000001
v -1.000000 1.000000 1.000000
v -1.000000 1.000000 -1.000000
usemtl Material
s off
f 177//35 178//35 179//35
f 177//35 179//35 180//35
f 181//3 184//3 183//3
f 181//3 183//3 182//3
f 177//11 181//11 182//11
f 177//11 182//11 178//11
f 178//10 182//10 183//10
f 178//10 183//10 179//10
f 179//9 183//9 184//9
f 179//9 184//9 180//9
f 181//12 177//12 180//12
f 181//12 180//12 184//12
