# Alias OBJ Model File
# Exported from SketchUp, (c) 2000-2006 Google, Inc.
# File units = meters

mtllib highrise_12.mtl

g Mesh1 Model

usemtl FrontColor
v 0 75 -0
vt 0 2952.76
vn -1 0 -0
v 0 50 10
vt 393.701 1968.5
v 0 75 10
vt 393.701 2952.76
f 1/1/1 2/2/1 3/3/1

v 0 0 -0
vt 0 0
f 4/4/1 2/2/1 1/1/1

v 0 0 20
vt 787.402 0
f 5/5/1 2/2/1 4/4/1

v 0 50 20
vt 787.402 1968.5
f 2/2/1 5/5/1 6/6/1

vt 0 1968.5
vn 0 0 -1
v 20 0 20
vt -787.402 0
f 6/7/2 7/8/2 5/4/2

v 10 37.78 20
vt -393.701 1487.4
f 7/8/2 6/7/2 8/9/2

v 10 50 20
vt -393.701 1968.5
f 8/9/2 6/7/2 9/10/2

vt 0 -787.402
vn 0 -1 -0
v 0.941777 50 19.0638
vt -37.0778 -750.545
vt -393.701 -787.402
f 6/11/3 10/12/3 9/13/3

v 0.941777 50 10.8038
vt -37.0778 -425.348
f 10/12/3 6/11/3 11/14/3

vt 0 -393.701
f 2/15/3 11/14/3 6/11/3

v 10 50 10
vt -393.701 -393.701
f 11/14/3 2/15/3 12/16/3

usemtl Color_003
v 10 56.84 10
vt 393.701 2237.8
vn 0 0 1
f 13/17/4 2/7/4 12/2/4

f 2/7/4 13/17/4 3/1/4

v 10 75 10
f 3/1/4 13/17/4 14/3/4

v 10 56.84 -0
vt 0 2237.8
vn 1 0 -0
vt -393.701 2952.76
vt -393.701 2237.8
f 15/18/5 14/19/5 13/20/5

v 10 75 -0
f 14/19/5 15/18/5 16/1/5

usemtl FrontColor
f 15/20/2 1/1/2 16/19/2

v 20 0 -0
f 17/8/2 1/1/2 15/20/2

f 1/1/2 17/8/2 4/4/2

v 20 56.84 -0
vt -787.402 2237.8
f 18/21/2 17/8/2 15/20/2

v 20 37.78 10
vt 393.701 1487.4
f 17/4/1 19/22/1 18/18/1

f 7/5/1 19/22/1 17/4/1

v 20 37.78 20
vt 787.402 1487.4
f 19/22/1 7/5/1 20/23/1

vt -787.402 1487.4
f 20/24/2 7/8/2 8/9/2

vt -393.701 -787.402
vn 1.56084e-016 -1 1.762e-016
v 19.2462 37.78 18.9709
vt -757.725 -746.885
vt -787.402 -787.402
f 8/25/6 21/26/6 20/27/6

v 10 37.78 18.9709
vt -393.701 -746.885
f 21/26/6 8/25/6 22/28/6

vt 746.885 1487.4
f 8/23/1 12/2/1 22/29/1

f 12/2/1 8/23/1 9/6/1

v 9.20178 50 19.0638
vt -362.275 -750.545
f 9/13/3 23/30/3 12/16/3

f 9/13/3 10/12/3 23/30/3

v 0.941777 49 19.0638
vt 37.0778 1929.13
vt 362.275 1968.5
vt 37.0778 1968.5
f 24/31/4 23/32/4 10/33/4

v 9.20178 49 19.0638
vt 362.275 1929.13
f 23/32/4 24/31/4 25/34/4

v 9.20178 49 10.8038
vt -362.275 -425.348
f 24/12/3 26/35/3 25/30/3

v 0.941777 49 10.8038
f 26/35/3 24/12/3 27/14/3

vt 750.545 1929.13
vt 425.348 1968.5
vt 425.348 1929.13
f 24/36/1 11/37/1 27/38/1

vt 750.545 1968.5
f 11/37/1 24/36/1 10/39/1

vt -37.0778 1968.5
vt -362.275 1929.13
vt -37.0778 1929.13
f 11/40/2 26/41/2 27/42/2

v 9.20178 50 10.8038
vt -362.275 1968.5
f 26/41/2 11/40/2 28/43/2

f 11/14/3 12/16/3 28/35/3

f 28/35/3 12/16/3 23/30/3

vt -750.545 1968.5
vt -425.348 1929.13
vt -425.348 1968.5
f 23/44/5 26/45/5 28/46/5

vt -750.545 1929.13
f 26/45/5 23/44/5 25/47/5

v 10 36.78 18.9709
vt 746.885 1448.03
f 22/29/1 12/2/1 29/48/1

v 10 36.78 10
vt 393.701 1448.03
f 29/48/1 12/2/1 30/49/1

v 19.2462 37.78 10
vt -757.725 1487.4
vt -393.701 1448.03
f 31/50/2 30/51/2 12/10/2

v 19.2462 36.78 10
vt -757.725 1448.03
f 30/51/2 31/50/2 32/52/2

vt -746.885 1487.4
vn 1 -6.24612e-016 -0
f 21/53/7 32/51/7 31/9/7

v 19.2462 36.78 18.9709
vt -746.885 1448.03
f 32/51/7 21/53/7 33/54/7

vt 757.725 1487.4
vn 0 -6.43781e-016 1
vt 757.725 1448.03
f 21/55/8 29/49/8 33/56/8

f 29/49/8 21/55/8 22/22/8

vt -393.701 -746.885
vn -6.24612e-016 -1 -6.43781e-016
vt -757.725 -393.701
vt -757.725 -746.885
f 29/57/9 32/58/9 33/59/9

vt -393.701 -393.701
f 32/58/9 29/57/9 30/60/9

vt -787.402 -393.701
vt -757.725 -393.701
f 19/61/6 21/26/6 31/62/6

f 20/27/6 21/26/6 19/61/6

f 31/50/2 12/10/2 19/24/2

v 20 56.84 10
f 19/24/2 12/10/2 34/21/2

f 34/21/2 12/10/2 13/20/2

v 10.7854 56.84 9.32466
vt -424.621 -367.112
vt -787.402 -393.701
f 13/16/3 35/63/3 34/64/3

v 10.7854 56.84 0.834657
vt -424.621 -32.8605
f 35/63/3 13/16/3 36/65/3

vt -393.701 0
f 15/66/3 36/65/3 13/16/3

f 36/65/3 15/66/3 18/8/3

v 19.2754 56.84 0.834657
vt -758.873 -32.8605
f 36/65/3 18/8/3 37/67/3

v 19.2754 56.84 9.32466
vt -758.873 -367.112
f 37/67/3 18/8/3 38/68/3

f 34/64/3 38/68/3 18/8/3

f 34/64/3 35/63/3 38/68/3

v 10.7854 55.84 9.32466
vt 424.621 2198.43
vt 758.873 2237.8
vt 424.621 2237.8
f 39/69/4 38/70/4 35/71/4

v 19.2754 55.84 9.32466
vt 758.873 2198.43
f 38/70/4 39/69/4 40/72/4

v 19.2754 55.84 0.834657
f 39/63/3 41/67/3 40/68/3

v 10.7854 55.84 0.834657
f 41/67/3 39/63/3 42/65/3

vt 367.112 2198.43
vt 32.8605 2237.8
vt 32.8605 2198.43
f 39/73/1 36/74/1 42/75/1

vt 367.112 2237.8
f 36/74/1 39/73/1 35/76/1

vt -424.621 2237.8
vt -758.873 2198.43
vt -424.621 2198.43
f 36/77/2 41/78/2 42/79/2

vt -758.873 2237.8
f 41/78/2 36/77/2 37/80/2

vt -367.112 2237.8
vt -32.8605 2198.43
vt -32.8605 2237.8
f 38/81/5 41/82/5 37/83/5

vt -367.112 2198.43
f 41/82/5 38/81/5 40/84/5

f 18/18/1 19/22/1 34/17/1

usemtl Color_003
vn 0 1 -0
v 0.921475 75 0.852849
vt 36.2785 -33.5767
vt 393.701 0
f 1/4/10 43/85/10 16/86/10

v 0.921475 75 9.08285
vt 36.2785 -357.592
f 43/85/10 1/4/10 44/87/10

f 3/15/10 44/87/10 1/4/10

vt 393.701 -393.701
f 44/87/10 3/15/10 14/88/10

v 9.15147 75 9.08285
vt 360.294 -357.592
f 44/87/10 14/88/10 45/89/10

v 9.15147 75 0.852849
vt 360.294 -33.5767
f 45/89/10 14/88/10 46/90/10

f 16/86/10 46/90/10 14/88/10

f 16/86/10 43/85/10 46/90/10

v 0.921475 74 0.852849
vt 36.2785 2913.39
vt 360.294 2952.76
vt 36.2785 2952.76
f 47/91/4 46/92/4 43/93/4

v 9.15147 74 0.852849
vt 360.294 2913.39
f 46/92/4 47/91/4 48/94/4

usemtl Color_007
v 9.15147 74 9.08285
f 47/85/10 49/89/10 48/90/10

v 0.921475 74 9.08285
f 49/89/10 47/85/10 50/87/10

usemtl Color_003
vt -33.5767 2913.39
vt -357.592 2952.76
vt -357.592 2913.39
f 47/95/5 44/96/5 50/97/5

vt -33.5767 2952.76
f 44/96/5 47/95/5 43/98/5

vt -36.2785 2952.76
vt -360.294 2913.39
vt -36.2785 2913.39
f 44/99/2 49/100/2 50/101/2

vt -360.294 2952.76
f 49/100/2 44/99/2 45/102/2

vt 33.5767 2952.76
vt 357.592 2913.39
vt 357.592 2952.76
f 46/103/1 49/104/1 45/105/1

vt 33.5767 2913.39
f 49/104/1 46/103/1 48/106/1

