# Alias OBJ Model File
# Exported from SketchUp, (c) 2000-2006 Google, Inc.
# File units = meters

mtllib highrise_1.mtl

g Mesh1 Model

usemtl Color_C14
v 0 20 23
vt 0 -905.512
vn 0 1 -0
v 1.14196 20 21.9415
vt 44.9592 -863.837
v 0 20 -0
vt 0 0
f 1/1/1 2/2/1 3/3/1

v 23 20 23
vt 905.512 -905.512
f 2/2/1 1/1/1 4/4/1

v 0 0 23
vn 0 0 1
vt 905.512 787.402
vt 0 787.402
f 5/3/2 4/5/2 1/6/2

v 23 0 23
vt 905.512 0
f 4/5/2 5/3/2 6/7/2

v 23 0 -0
vn 1 0 -0
vt -905.512 787.402
vt -905.512 0
f 7/3/3 4/8/3 6/9/3

v 23 20 -0
f 4/8/3 7/3/3 8/6/3

vn 0 0 -1
f 7/9/4 3/6/4 8/8/4

v 0 0 -0
f 3/6/4 7/9/4 9/3/4

vn -1 0 -0
f 5/7/5 3/6/5 9/3/5

f 3/6/5 5/7/5 1/5/5

v 1.14196 20 0.861456
vt 44.9592 -33.9156
f 3/3/1 10/10/1 8/7/1

f 10/10/1 3/3/1 2/2/1

usemtl Color_005
vt -863.837 787.402
v 1.14196 19 0.861456
vt -33.9156 748.031
vt -33.9156 787.402
f 2/11/3 11/12/3 10/13/3

v 1.14196 19 21.9415
vt -863.837 748.031
f 11/12/3 2/11/3 12/14/3

vt -44.9592 787.402
v 21.962 19 21.9415
vt -864.644 748.031
vt -44.9592 748.031
f 2/15/4 13/16/4 12/17/4

v 21.962 20 21.9415
vt -864.644 787.402
f 13/16/4 2/15/4 14/18/4

usemtl Color_C14
vt 864.644 -863.837
f 2/2/1 4/4/1 14/19/1

v 21.962 20 0.861456
vt 864.644 -33.9156
f 14/19/1 4/4/1 15/20/1

f 8/7/1 15/20/1 4/4/1

f 8/7/1 10/10/1 15/20/1

usemtl Color_005
vt 44.9592 748.031
vt 864.644 787.402
vt 44.9592 787.402
f 11/21/2 15/22/2 10/23/2

v 21.962 19 0.861456
vt 864.644 748.031
f 15/22/2 11/21/2 16/24/2

v 2.30029 19 2.8981
vt 90.5625 -114.098
f 11/10/1 17/25/1 16/20/1

v 2.30029 19 11.1181
vt 90.5625 -437.72
f 17/25/1 11/10/1 18/26/1

f 12/2/1 18/26/1 11/10/1

v 18.7205 19 20.2978
vt 737.029 -799.128
f 18/26/1 12/2/1 19/27/1

f 19/27/1 12/2/1 13/19/1

v 20.7205 19 20.2978
vt 815.769 -799.128
f 19/27/1 13/19/1 20/28/1

v 20.7205 19 18.2978
vt 815.769 -720.388
f 20/28/1 13/19/1 21/29/1

f 16/20/1 21/29/1 13/19/1

v 18.7205 19 18.2978
vt 737.029 -720.388
f 16/20/1 22/30/1 21/29/1

v 10.5203 19 2.8981
vt 414.185 -114.098
f 16/20/1 23/31/1 22/30/1

f 16/20/1 17/25/1 23/31/1

usemtl Color_C14
v 2.30029 22 2.8981
vt -90.5625 866.142
vt -414.185 748.031
vt -90.5625 748.031
f 24/32/4 23/33/4 17/34/4

v 10.5203 22 2.8981
vt -414.185 866.142
f 23/33/4 24/32/4 25/35/4

usemtl Color_005
v 10.5203 22 11.1181
vt 414.185 -437.72
f 24/25/1 26/36/1 25/31/1

v 2.30029 22 11.1181
f 26/36/1 24/25/1 27/26/1

usemtl Color_C14
vt 114.098 866.142
vt 437.72 748.031
vt 437.72 866.142
f 24/37/5 18/38/5 27/39/5

vt 114.098 748.031
f 18/38/5 24/37/5 17/40/5

vt 90.5625 748.031
vt 414.185 866.142
vt 90.5625 866.142
f 18/41/2 26/42/2 27/43/2

v 10.5203 19 11.1181
vt 414.185 748.031
f 26/42/2 18/41/2 28/44/2

usemtl Color_005
f 18/26/1 19/27/1 28/36/1

f 28/36/1 19/27/1 23/31/1

f 22/30/1 23/31/1 19/27/1

usemtl Color_C14
vt 799.128 748.031
v 18.7205 21 18.2978
vt 720.388 826.772
vt 720.388 748.031
f 19/45/5 29/46/5 22/47/5

v 18.7205 21 20.2978
vt 799.128 826.772
f 29/46/5 19/45/5 30/48/5

vt 737.029 748.031
v 20.7205 21 20.2978
vt 815.769 826.772
vt 737.029 826.772
f 19/49/2 31/50/2 30/51/2

vt 815.769 748.031
f 31/50/2 19/49/2 20/52/2

vt -720.388 748.031
vt -799.128 826.772
vt -799.128 748.031
f 21/53/3 31/54/3 20/55/3

v 20.7205 21 18.2978
vt -720.388 826.772
f 31/54/3 21/53/3 32/56/3

vt -815.769 748.031
vt -737.029 826.772
vt -815.769 826.772
f 21/57/4 29/58/4 32/59/4

vt -737.029 748.031
f 29/58/4 21/57/4 22/60/4

usemtl Color_005
f 29/30/1 31/28/1 32/29/1

f 31/28/1 29/30/1 30/27/1

usemtl Color_C14
vt -114.098 748.031
vt -437.72 866.142
vt -437.72 748.031
f 23/61/3 26/62/3 28/63/3

vt -114.098 866.142
f 26/62/3 23/61/3 25/64/3

usemtl Color_005
vt 863.837 748.031
vt 33.9156 787.402
vt 33.9156 748.031
f 13/65/5 15/66/5 16/67/5

vt 863.837 787.402
f 15/66/5 13/65/5 14/68/5

