# Alias OBJ Model File
# Exported from SketchUp, (c) 2000-2006 Google, Inc.
# File units = meters

mtllib highrise_6.mtl

g Mesh1 Model

usemtl FrontColor
v 25 10 -15
vt 984.252 590.551
vn 0 1 -0
v 15 10 -25
vt 590.551 984.252
v 15 10 -15
vt 590.551 590.551
f 1/1/1 2/2/1 3/3/1

v 25 10 -25
vt 984.252 984.252
f 2/2/1 1/1/1 4/4/1

vt 590.551 393.701
vn 1 0 -0
v 25 0 -25
vt 984.252 0
vt 984.252 393.701
f 1/5/2 5/6/2 4/7/2

v 25 0 -15
vt 590.551 0
f 5/6/2 1/5/2 6/8/2

vt 984.252 393.701
vn 0 0 1
v 15 0 -15
vt 984.252 0
f 1/9/3 7/8/3 6/10/3

f 7/8/3 1/9/3 3/5/3

v 15 10 -0
vt 0 393.701
f 8/11/2 7/8/2 3/5/2

v 15 0 -0
vt 0 0
f 7/8/2 8/11/2 9/12/2

v 0 0 -0
f 8/5/3 10/12/3 9/8/3

v 0 10 -0
f 10/12/3 8/5/3 11/11/3

v 0 10 -15
vt 0 590.551
f 8/8/1 12/13/1 11/12/1

f 12/13/1 8/8/1 3/3/1

v 15 15 -15
f 13/3/3 12/11/3 3/5/3

v 0 15 -15
f 12/11/3 13/3/3 14/13/3

v 0 15 -25
vt 0 984.252
f 13/3/1 15/14/1 14/13/1

v 15 15 -25
f 15/14/1 13/3/1 16/2/1

vt 984.252 590.551
f 13/3/2 2/7/2 16/15/2

f 2/7/2 13/3/2 3/5/2

vt -590.551 393.701
vn 0 0 -1
vt -590.551 590.551
f 2/16/4 15/13/4 16/17/4

vt -984.252 0
f 5/18/4 15/13/4 2/16/4

v 0 0 -25
f 15/13/4 5/18/4 17/12/4

vt -984.252 0
vn -1 0 -0
vt -984.252 590.551
f 17/19/5 12/16/5 15/20/5

f 10/12/5 12/16/5 17/19/5

f 12/16/5 10/12/5 11/11/5

f 15/20/5 12/16/5 14/17/5

vt -984.252 393.701
f 4/21/4 5/18/4 2/16/4

