# Alias OBJ Model File
# Exported from SketchUp, (c) 2000-2006 Google, Inc.
# File units = meters

mtllib highrise_9.mtl

g Mesh1 Model

usemtl FrontColor
v 0 15 12.832
vt 505.198 590.551
vn -1 0 -0
v 0 0 20
vt 787.402 0
v 0 15 20
vt 787.402 590.551
f 1/1/1 2/2/1 3/3/1

v 0 10 12.832
vt 505.198 393.701
f 2/2/1 1/1/1 4/4/1

usemtl Color_C14
vt 0 590.551
vn 0 0 -1
v 0.719182 10 12.832
vt -28.3142 393.701
vt 0 393.701
f 1/5/2 5/6/2 4/7/2

v 19.2392 10 12.832
vt -757.448 393.701
f 5/6/2 1/5/2 6/8/2

v 20 10 12.832
vt -787.402 393.701
f 6/8/2 1/5/2 7/9/2

v 20 15 12.832
vt -787.402 590.551
f 7/9/2 1/5/2 8/10/2

vt 0 -505.198
vn 0 1 -0
v 0.731125 15 13.4568
vt 28.7844 -529.796
vt 787.402 -505.198
f 1/11/3 9/12/3 8/13/3

v 0.731125 15 19.3868
vt 28.7844 -763.26
f 9/12/3 1/11/3 10/14/3

vt 0 -787.402
f 3/15/3 10/14/3 1/11/3

v 20 15 20
vt 787.402 -787.402
f 10/14/3 3/15/3 11/16/3

vt 0 0
vn 0 0 1
f 2/17/4 11/3/4 3/5/4

v 20 0 20
f 11/3/4 2/17/4 12/2/4

v 20 0 -0
vn 1 0 -0
vt -787.402 0
f 13/17/5 11/10/5 12/18/5

vt -505.198 393.701
f 11/10/5 13/17/5 7/19/5

v 20 10 -0
f 7/19/5 13/17/5 14/7/5

v 0 10 -0
f 13/18/2 15/7/2 14/9/2

v 0 0 -0
f 15/7/2 13/18/2 16/17/2

usemtl FrontColor
f 16/17/1 4/4/1 15/7/1

f 2/2/1 4/4/1 16/17/1

usemtl Color_C14
vt 28.3142 -505.198
f 5/20/3 15/17/3 4/11/3

v 0.719182 10 0.562034
vt 28.3142 -22.1273
f 15/17/3 5/20/3 17/21/3

vn 1 0 -4.70684e-016
v 0.719182 9 0.562034
vt -22.1273 354.331
vt -22.1273 393.701
f 5/19/6 18/22/6 17/23/6

v 0.719182 9 12.832
vt -505.198 354.331
f 18/22/6 5/19/6 19/24/6

v 19.2392 9 12.832
vt -757.448 354.331
vt -28.3142 354.331
f 5/6/2 20/25/2 19/26/2

f 20/25/2 5/6/2 6/8/2

usemtl FrontColor
v 19.2392 10 0.562034
vt 22.1273 393.701
vt 505.198 354.331
f 21/27/1 20/28/1 6/4/1

v 19.2392 9 0.562034
vt 22.1273 354.331
f 20/28/1 21/27/1 22/29/1

usemtl Color_C14
vt 757.448 393.701
vt 28.3142 354.331
vt 757.448 354.331
f 21/30/4 18/31/4 22/32/4

vt 28.3142 393.701
f 18/31/4 21/30/4 17/33/4

vt 757.448 -22.1273
f 14/2/3 17/21/3 21/34/3

f 17/21/3 14/2/3 15/17/3

f 14/2/3 21/34/3 7/13/3

vt 757.448 -505.198
f 7/13/3 21/34/3 6/35/3

usemtl Color_007
v 2.73285 9 1.51525
vt 107.593 -59.6554
f 18/21/3 23/36/3 22/34/3

f 23/36/3 18/21/3 19/20/3

v 2.73285 9 4.84525
vt 107.593 -190.758
f 23/36/3 19/20/3 24/37/3

f 20/35/3 24/37/3 19/20/3

v 6.41285 9 4.84525
vt 252.475 -190.758
f 24/37/3 20/35/3 25/38/3

v 6.41285 9 1.51525
vt 252.475 -59.6554
f 25/38/3 20/35/3 26/39/3

f 22/34/3 26/39/3 20/35/3

f 22/34/3 23/36/3 26/39/3

usemtl Color_006
v 2.73285 11 1.51525
vt -107.593 433.071
vt -252.475 354.331
vt -107.593 354.331
f 27/40/2 26/41/2 23/42/2

v 6.41285 11 1.51525
vt -252.475 433.071
f 26/41/2 27/40/2 28/43/2

v 6.41285 11 4.84525
f 27/36/3 29/38/3 28/39/3

v 2.73285 11 4.84525
f 29/38/3 27/36/3 30/37/3

usemtl FrontColor
vt 59.6554 433.071
vt 190.758 354.331
vt 190.758 433.071
f 27/44/1 24/45/1 30/46/1

vt 59.6554 354.331
f 24/45/1 27/44/1 23/47/1

usemtl Color_006
vt 107.593 354.331
vt 252.475 433.071
vt 107.593 433.071
f 24/48/4 29/49/4 30/50/4

vt 252.475 354.331
f 29/49/4 24/48/4 25/51/4

vt -59.6554 354.331
vt -190.758 433.071
vt -190.758 354.331
f 26/52/5 29/53/5 25/54/5

vt -59.6554 433.071
f 29/53/5 26/52/5 28/55/5

usemtl Color_C14
vt -505.198 590.551
f 8/56/5 11/10/5 7/19/5

v 19.2711 15 13.4568
vt 758.706 -529.796
f 8/13/3 31/57/3 11/16/3

f 8/13/3 9/12/3 31/57/3

v 0.731125 14 13.4568
vt 28.7844 551.181
vt 758.706 590.551
vt 28.7844 590.551
f 32/58/4 31/59/4 9/60/4

v 19.2711 14 13.4568
vt 758.706 551.181
f 31/59/4 32/58/4 33/61/4

usemtl Color_007
v 1.73374 14 16.4541
vt 68.2575 -647.798
f 32/12/3 34/62/3 33/57/3

v 1.73374 14 18.8141
vt 68.2575 -740.711
f 34/62/3 32/12/3 35/63/3

v 0.731125 14 19.3868
f 36/14/3 35/63/3 32/12/3

v 19.2711 14 19.3868
vt 758.706 -763.26
f 35/63/3 36/14/3 37/64/3

usemtl Color_C14
vt -28.7844 590.551
vt -758.706 551.181
vt -28.7844 551.181
f 10/65/2 37/66/2 36/67/2

v 19.2711 15 19.3868
vt -758.706 590.551
f 37/66/2 10/65/2 38/68/2

f 10/14/3 11/16/3 38/64/3

f 38/64/3 11/16/3 31/57/3

usemtl FrontColor
vt 529.796 590.551
vt 763.26 551.181
vt 763.26 590.551
f 31/69/1 37/70/1 38/71/1

vt 529.796 551.181
f 37/70/1 31/69/1 33/72/1

usemtl Color_007
v 4.56374 14 16.4541
vt 179.675 -647.798
f 33/57/3 39/73/3 37/64/3

f 33/57/3 34/62/3 39/73/3

usemtl Color_006
v 1.73374 16 16.4541
vt -68.2575 629.921
vt -179.675 551.181
vt -68.2575 551.181
f 40/74/2 39/75/2 34/76/2

v 4.56374 16 16.4541
vt -179.675 629.921
f 39/75/2 40/74/2 41/77/2

v 4.56374 16 18.8141
vt 179.675 -740.711
f 40/62/3 42/78/3 41/73/3

v 1.73374 16 18.8141
f 42/78/3 40/62/3 43/63/3

usemtl FrontColor
vt 647.798 629.921
vt 740.711 551.181
vt 740.711 629.921
f 40/79/1 35/80/1 43/81/1

vt 647.798 551.181
f 35/80/1 40/79/1 34/82/1

usemtl Color_006
vt 68.2575 551.181
vt 179.675 629.921
vt 68.2575 629.921
f 35/83/4 42/84/4 43/85/4

v 4.56374 14 18.8141
vt 179.675 551.181
f 42/84/4 35/83/4 44/86/4

usemtl Color_007
f 35/63/3 37/64/3 44/78/3

f 44/78/3 37/64/3 39/73/3

usemtl Color_006
vt -647.798 551.181
vt -740.711 629.921
vt -740.711 551.181
f 39/87/5 42/88/5 44/89/5

vt -647.798 629.921
f 42/88/5 39/87/5 41/90/5

usemtl Color_C14
vt -529.796 551.181
vt -763.26 590.551
vt -763.26 551.181
f 32/91/5 10/92/5 36/93/5

vt -529.796 590.551
f 10/92/5 32/91/5 9/94/5

