# Blender v2.62 (sub 0) OBJ File: ''
# www.blender.org
o Cube_Cube.003
v 19.999990 0.000000 -19.999990
v 19.999990 0.000000 -0.000001
v -0.000001 0.000000 -0.000002
v 0.000004 0.000000 -19.999994
v 19.999994 50.000000 -19.999987
v 19.999983 50.000000 0.000006
v -0.000004 50.000000 -0.000004
v 0.000001 50.000000 -19.999990
vn 0.000000 -1.000000 0.000000
vn 0.000000 1.000000 0.000000
vn 1.000000 0.000000 0.000000
vn -0.000000 -0.000000 1.000000
vn -1.000000 -0.000000 -0.000000
vn 0.000000 0.000000 -1.000000
s off
f 1//1 2//1 3//1
f 1//1 3//1 4//1
f 5//2 8//2 7//2
f 5//2 7//2 6//2
f 1//3 5//3 6//3
f 1//3 6//3 2//3
f 2//4 6//4 7//4
f 2//4 7//4 3//4
f 3//5 7//5 8//5
f 3//5 8//5 4//5
f 5//6 1//6 4//6
f 5//6 4//6 8//6
o Mesh.007_Mesh.004_Mesh.003_Mesh.003_Mesh_SketchUp.002_ID16
v 8.759949 25.088999 -5.809503
v 8.759949 25.088999 -5.848074
v 8.757410 25.088999 -5.828789
v 8.767392 25.088999 -5.791532
v 8.767392 25.089001 -5.866045
v 8.779234 25.088999 -5.776101
v 8.779234 25.089001 -5.881478
v 8.794665 25.088999 -5.764259
v 8.794665 25.089001 -5.893319
v 8.812637 25.088999 -5.756815
v 8.812637 25.089001 -5.900763
v 8.831923 25.088999 -5.754276
v 8.831923 25.089001 -5.903302
v 8.851207 25.088999 -5.756815
v 8.851207 25.089001 -5.900763
v 8.869179 25.088999 -5.764259
v 8.869179 25.089001 -5.893319
v 8.884610 25.088999 -5.776101
v 8.884610 25.089001 -5.881478
v 8.896452 25.088999 -5.791532
v 8.896452 25.089001 -5.866045
v 8.903896 25.088999 -5.809503
v 8.903896 25.088999 -5.848074
v 8.906435 25.088999 -5.828789
v 8.903896 21.363359 -5.848078
v 8.906435 25.088999 -5.828789
v 8.906435 21.363359 -5.828793
v 8.903896 25.088999 -5.848074
v 8.896452 21.363361 -5.866049
v 8.896452 25.089001 -5.866045
v 8.884610 21.363361 -5.881481
v 8.884610 25.089001 -5.881478
v 8.869179 25.089001 -5.893319
v 8.869179 21.363361 -5.893322
v 8.851207 25.089001 -5.900763
v 8.851207 21.363361 -5.900766
v 8.831923 25.089001 -5.903302
v 8.831923 21.363361 -5.903306
v 8.812637 25.089001 -5.900763
v 8.812637 21.363361 -5.900766
v 8.794665 25.089001 -5.893319
v 8.794665 21.363361 -5.893322
v 8.779234 25.089001 -5.881478
v 8.779234 21.363361 -5.881481
v 8.767392 21.363361 -5.866049
v 8.767392 25.089001 -5.866045
v 8.759949 21.363359 -5.848078
v 8.759949 25.088999 -5.848074
v 8.757410 21.363359 -5.828793
v 8.757410 25.088999 -5.828789
v 8.759949 21.363359 -5.809507
v 8.759949 25.088999 -5.809503
v 8.767392 21.363359 -5.791536
v 8.767392 25.088999 -5.791532
v 8.779234 21.363359 -5.776104
v 8.779234 25.088999 -5.776101
v 8.794665 25.088999 -5.764259
v 8.794665 21.363359 -5.764263
v 8.812637 25.088999 -5.756815
v 8.812637 21.363359 -5.756819
v 8.831923 25.088999 -5.754276
v 8.831923 21.363359 -5.754280
v 8.851207 25.088999 -5.756815
v 8.851207 21.363359 -5.756819
v 8.869179 25.088999 -5.764259
v 8.869179 21.363359 -5.764263
v 8.884610 25.088999 -5.776101
v 8.884610 21.363359 -5.776104
v 8.896452 21.363359 -5.791536
v 8.896452 25.088999 -5.791532
v 8.903896 21.363359 -5.809507
v 8.903896 25.088999 -5.809503
vn -0.000194 1.000000 0.000026
vn -0.000033 1.000000 0.000026
vn 0.000024 1.000000 0.000018
vn -0.000014 1.000000 0.000018
vn 0.000011 1.000000 0.000015
vn -0.000006 1.000000 0.000015
vn 0.000005 1.000000 0.000013
vn -0.000002 1.000000 0.000013
vn 0.000002 1.000000 0.000013
vn 0.000062 1.000000 0.000026
vn 0.000256 1.000000 -0.000000
vn 0.991447 0.000000 -0.130510
vn 0.991447 0.000000 -0.130513
vn 0.923866 0.000000 -0.382716
vn 0.793351 0.000001 -0.608765
vn 0.793360 0.000001 -0.608753
vn 0.608773 0.000001 -0.793344
vn 0.382669 0.000001 -0.923886
vn 0.130543 0.000001 -0.991443
vn -0.130537 0.000001 -0.991444
vn -0.382669 0.000001 -0.923886
vn -0.608773 0.000001 -0.793344
vn -0.793360 0.000001 -0.608753
vn -0.793351 0.000001 -0.608765
vn -0.923884 0.000000 -0.382674
vn -0.991447 0.000000 -0.130513
vn -0.991447 0.000000 -0.130510
vn -0.991448 -0.000000 0.130507
vn -0.991447 -0.000000 0.130510
vn -0.923887 -0.000000 0.382665
vn -0.923884 -0.000000 0.382674
vn -0.793323 -0.000001 0.608800
vn -0.793342 -0.000001 0.608777
vn -0.608773 -0.000001 0.793344
vn -0.608789 -0.000001 0.793332
vn -0.382690 -0.000001 0.923877
vn -0.382669 -0.000001 0.923886
vn -0.130513 -0.000001 0.991447
vn -0.130537 -0.000001 0.991444
vn 0.130519 -0.000001 0.991446
vn 0.130543 -0.000001 0.991443
vn 0.382690 -0.000001 0.923877
vn 0.382669 -0.000001 0.923886
vn 0.608773 -0.000001 0.793344
vn 0.608789 -0.000001 0.793332
vn 0.793342 -0.000001 0.608777
vn 0.793323 -0.000001 0.608800
vn 0.923866 -0.000000 0.382715
vn 0.923870 -0.000000 0.382707
vn 0.991447 -0.000000 0.130510
vn 0.991447 -0.000000 0.130507
s off
f 9//2 10//2 11//2
f 10//2 9//2 12//2
f 10//7 12//7 13//7
f 13//8 12//8 14//8
f 13//9 14//9 15//9
f 15//10 14//10 16//10
f 15//11 16//11 17//11
f 17//12 16//12 18//12
f 17//13 18//13 19//13
f 19//14 18//14 20//14
f 19//15 20//15 21//15
f 21//15 20//15 22//15
f 21//14 22//14 23//14
f 23//13 22//13 24//13
f 23//12 24//12 25//12
f 25//11 24//11 26//11
f 25//10 26//10 27//10
f 27//9 26//9 28//9
f 27//8 28//8 29//8
f 29//16 28//16 30//16
f 29//17 30//17 31//17
f 31//2 30//2 32//2
f 33//18 34//18 35//18
f 34//19 33//19 36//19
f 37//20 36//20 33//20
f 36//20 37//20 38//20
f 39//21 38//21 37//21
f 38//22 39//22 40//22
f 41//23 39//23 42//23
f 39//23 41//23 40//23
f 43//24 42//24 44//24
f 42//24 43//24 41//24
f 45//25 44//25 46//25
f 44//25 45//25 43//25
f 47//26 46//26 48//26
f 46//26 47//26 45//26
f 49//27 48//27 50//27
f 48//27 49//27 47//27
f 51//28 50//28 52//28
f 50//28 51//28 49//28
f 51//29 53//29 54//29
f 53//30 51//30 52//30
f 54//31 55//31 56//31
f 55//31 54//31 53//31
f 56//32 57//32 58//32
f 57//33 56//33 55//33
f 58//34 59//34 60//34
f 59//35 58//35 57//35
f 60//36 61//36 62//36
f 61//37 60//37 59//37
f 62//38 63//38 64//38
f 63//39 62//39 61//39
f 65//40 63//40 66//40
f 63//41 65//41 64//41
f 67//42 66//42 68//42
f 66//43 67//43 65//43
f 69//44 68//44 70//44
f 68//45 69//45 67//45
f 71//46 70//46 72//46
f 70//47 71//47 69//47
f 73//48 72//48 74//48
f 72//49 73//49 71//49
f 75//50 74//50 76//50
f 74//51 75//51 73//51
f 77//52 75//52 76//52
f 75//53 77//53 78//53
f 79//54 78//54 77//54
f 78//55 79//55 80//55
f 35//56 80//56 79//56
f 80//57 35//57 34//57
