# Alias OBJ Model File
# Exported from SketchUp, (c) 2000-2006 Google, Inc.
# File units = meters

mtllib highrise_12.mtl

g Mesh1 Model

usemtl FrontColor
v 0 75 -0
vt 0 2952.76
vn -1 0 -0
v 0 50 10
vt 393.701 1968.5
v 0 75 10
vt 393.701 2952.76
f 1/1/1 2/2/1 3/3/1

v 0 0 -0
vt 0 0
f 4/4/1 2/2/1 1/1/1

v 0 0 20
vt 787.402 0
f 5/5/1 2/2/1 4/4/1

v 0 50 20
vt 787.402 1968.5
f 2/2/1 5/5/1 6/6/1

vt 0 1968.5
vn 0 0 -1
v 20 0 20
vt -787.402 0
f 6/7/2 7/8/2 5/4/2

v 10 37.78 20
vt -393.701 1487.4
f 7/8/2 6/7/2 8/9/2

v 10 50 20
vt -393.701 1968.5
f 8/9/2 6/7/2 9/10/2

vt 0 -787.402
vn 0 -1 -0
v 10 50 10
vt -393.701 -393.701
vt -393.701 -787.402
f 6/11/3 10/12/3 9/13/3

vt 0 -393.701
f 10/12/3 6/11/3 2/14/3

v 10 56.84 10
vt 393.701 2237.8
vn 0 0 1
f 11/15/4 2/7/4 10/2/4

f 2/7/4 11/15/4 3/1/4

v 10 75 10
f 3/1/4 11/15/4 12/3/4

v 10 56.84 -0
vt 0 2237.8
vn 1 0 -0
vt -393.701 2952.76
vt -393.701 2237.8
f 13/16/5 12/17/5 11/18/5

v 10 75 -0
f 12/17/5 13/16/5 14/1/5

f 13/18/2 1/1/2 14/17/2

v 20 0 -0
f 15/8/2 1/1/2 13/18/2

f 1/1/2 15/8/2 4/4/2

v 20 56.84 -0
vt -787.402 2237.8
f 16/19/2 15/8/2 13/18/2

v 20 37.78 10
vt 393.701 1487.4
f 15/4/1 17/20/1 16/16/1

f 7/5/1 17/20/1 15/4/1

v 20 37.78 20
vt 787.402 1487.4
f 17/20/1 7/5/1 18/21/1

vt -787.402 1487.4
f 18/22/2 7/8/2 8/9/2

vt -787.402 -393.701
vt -787.402 -787.402
f 8/13/3 17/23/3 18/24/3

v 10 37.78 10
f 17/23/3 8/13/3 19/12/3

f 8/21/1 10/2/1 19/20/1

f 10/2/1 8/21/1 9/6/1

f 10/10/2 17/22/2 19/9/2

v 20 56.84 10
f 17/22/2 10/10/2 20/19/2

f 20/19/2 10/10/2 11/18/2

f 11/12/3 16/8/3 20/23/3

vt -393.701 0
f 16/8/3 11/12/3 13/25/3

f 16/16/1 17/20/1 20/15/1

vn 0 1 -0
vt 393.701 -393.701
vt 393.701 0
f 1/4/6 12/26/6 14/27/6

f 12/26/6 1/4/6 3/14/6

