# Alias OBJ Model File
# Exported from SketchUp, (c) 2000-2006 Google, Inc.
# File units = meters

mtllib highrise_4.mtl

g Mesh1 Model

usemtl Color_E14
v 0 45 20
vt 0 -787.402
vn 0 1 -0
v 0.669583 45 19.3919
vt 26.3615 -763.462
v 0 45 -0
vt 0 0
f 1/1/1 2/2/1 3/3/1

v 20 45 20
vt 787.402 -787.402
f 2/2/1 1/1/1 4/4/1

v 0 0 20
vn 0 0 1
vt 787.402 1771.65
vt 0 1771.65
f 5/3/2 4/5/2 1/6/2

v 20 0 20
vt 787.402 0
f 4/5/2 5/3/2 6/7/2

v 20 0 -0
vn 1 0 -0
vt -787.402 1771.65
vt -787.402 0
f 7/3/3 4/8/3 6/9/3

v 20 45 -0
f 4/8/3 7/3/3 8/6/3

vn 0 0 -1
f 7/9/4 3/6/4 8/8/4

v 0 0 -0
f 3/6/4 7/9/4 9/3/4

vn -1 0 -0
f 5/7/5 3/6/5 9/3/5

f 3/6/5 5/7/5 1/5/5

v 0.669583 45 0.741947
vt 26.3615 -29.2105
f 3/3/1 10/10/1 8/7/1

f 10/10/1 3/3/1 2/2/1

vt -763.462 1771.65
v 0.669583 44 0.741947
vt -29.2105 1732.28
vt -29.2105 1771.65
f 2/11/3 11/12/3 10/13/3

v 0.669583 44 19.3919
vt -763.462 1732.28
f 11/12/3 2/11/3 12/14/3

vt -26.3615 1771.65
v 19.3196 44 19.3919
vt -760.614 1732.28
vt -26.3615 1732.28
f 2/15/4 13/16/4 12/17/4

v 19.3196 45 19.3919
vt -760.614 1771.65
f 13/16/4 2/15/4 14/18/4

vt 760.614 -763.462
f 2/2/1 4/4/1 14/19/1

v 19.3196 45 0.741947
vt 760.614 -29.2105
f 14/19/1 4/4/1 15/20/1

f 8/7/1 15/20/1 4/4/1

f 8/7/1 10/10/1 15/20/1

vt 26.3615 1732.28
vt 760.614 1771.65
vt 26.3615 1771.65
f 11/21/2 15/22/2 10/23/2

v 19.3196 44 0.741947
vt 760.614 1732.28
f 15/22/2 11/21/2 16/24/2

usemtl Color_D20
v 3.11977 44 3.14374
vt 122.826 -123.769
f 11/10/1 17/25/1 16/20/1

v 2.65901 44 15.5374
vt 104.685 -611.707
f 17/25/1 11/10/1 18/26/1

v 2.65901 44 18.4974
vt 104.685 -728.242
f 18/26/1 11/10/1 19/27/1

f 12/2/1 19/27/1 11/10/1

f 19/27/1 12/2/1 13/19/1

v 5.61901 44 18.4974
vt 221.221 -728.242
f 19/27/1 13/19/1 20/28/1

v 5.61901 44 15.5374
vt 221.221 -611.707
f 20/28/1 13/19/1 21/29/1

v 16.1298 44 12.6037
vt 635.03 -496.21
f 21/29/1 13/19/1 22/30/1

v 16.1298 44 3.14374
vt 635.03 -123.769
f 22/30/1 13/19/1 23/31/1

f 16/20/1 23/31/1 13/19/1

f 16/20/1 17/25/1 23/31/1

usemtl Color_E14
v 3.11977 47 3.14374
vt -122.826 1850.39
vt -635.03 1732.28
vt -122.826 1732.28
f 24/32/4 23/33/4 17/34/4

v 16.1298 47 3.14374
vt -635.03 1850.39
f 23/33/4 24/32/4 25/35/4

v 4.16772 47 4.1887
vt 164.084 -164.91
f 24/25/1 26/36/1 25/31/1

v 4.16772 47 11.6287
vt 164.084 -457.823
f 26/36/1 24/25/1 27/37/1

v 3.11977 47 12.6037
vt 122.826 -496.21
f 28/38/1 27/37/1 24/25/1

v 16.1298 47 12.6037
f 27/37/1 28/38/1 29/30/1

v 3.11977 44 12.6037
vt 122.826 1732.28
vt 635.03 1850.39
vt 122.826 1850.39
f 30/39/2 29/40/2 28/41/2

vt 635.03 1732.28
f 29/40/2 30/39/2 22/42/2

usemtl Color_D20
f 30/38/1 21/29/1 22/30/1

f 21/29/1 30/38/1 18/26/1

f 17/25/1 18/26/1 30/38/1

usemtl Color_E14
vt 496.21 1732.28
vt 123.769 1850.39
vt 123.769 1732.28
f 30/43/5 24/44/5 17/45/5

vt 496.21 1850.39
f 24/44/5 30/43/5 28/46/5

usemtl Color_D20
v 2.65901 45 15.5374
vt -104.685 1771.65
vt -221.221 1732.28
vt -104.685 1732.28
f 31/47/4 21/48/4 18/49/4

v 5.61901 45 15.5374
vt -221.221 1771.65
f 21/48/4 31/47/4 32/50/4

usemtl Color_E14
v 5.61901 45 18.4974
f 31/26/1 33/28/1 32/29/1

v 2.65901 45 18.4974
f 33/28/1 31/26/1 34/27/1

vt 611.707 1771.65
vt 728.242 1732.28
vt 728.242 1771.65
f 31/51/5 19/52/5 34/53/5

vt 611.707 1732.28
f 19/52/5 31/51/5 18/54/5

vt 104.685 1732.28
vt 221.221 1771.65
vt 104.685 1771.65
f 19/55/2 33/56/2 34/57/2

vt 221.221 1732.28
f 33/56/2 19/55/2 20/58/2

vt -611.707 1732.28
vt -728.242 1771.65
vt -728.242 1732.28
f 21/59/3 33/60/3 20/61/3

vt -611.707 1771.65
f 33/60/3 21/59/3 32/62/3

vt -123.769 1732.28
vt -496.21 1850.39
vt -496.21 1732.28
f 23/63/3 29/64/3 22/65/3

vt -123.769 1850.39
f 29/64/3 23/63/3 25/66/3

v 15.0477 47 4.1887
vt 592.43 -164.91
f 25/31/1 35/67/1 29/30/1

f 25/31/1 26/36/1 35/67/1

v 4.16772 46 4.1887
vt 164.084 1811.02
vt 592.43 1850.39
vt 164.084 1850.39
f 36/68/2 35/69/2 26/70/2

v 15.0477 46 4.1887
vt 592.43 1811.02
f 35/69/2 36/68/2 37/71/2

usemtl Color_D20
v 15.0477 46 11.6287
vt 592.43 -457.823
f 36/36/1 38/72/1 37/67/1

v 4.16772 46 11.6287
f 38/72/1 36/36/1 39/37/1

usemtl Color_E14
vt -164.91 1811.02
vt -457.823 1850.39
vt -457.823 1811.02
f 36/73/3 27/74/3 39/75/3

vt -164.91 1850.39
f 27/74/3 36/73/3 26/76/3

vt -164.084 1850.39
vt -592.43 1811.02
vt -164.084 1811.02
f 27/77/4 38/78/4 39/79/4

v 15.0477 47 11.6287
vt -592.43 1850.39
f 38/78/4 27/77/4 40/80/4

f 27/37/1 29/30/1 40/72/1

f 40/72/1 29/30/1 35/67/1

vt 164.91 1850.39
vt 457.823 1811.02
vt 457.823 1850.39
f 35/81/5 38/82/5 40/83/5

vt 164.91 1811.02
f 38/82/5 35/81/5 37/84/5

vt 763.462 1732.28
vt 29.2105 1771.65
vt 29.2105 1732.28
f 13/85/5 15/86/5 16/87/5

vt 763.462 1771.65
f 15/86/5 13/85/5 14/88/5

