# Alias OBJ Model File
# Exported from SketchUp, (c) 2000-2006 Google, Inc.
# File units = meters

mtllib highrise_5.mtl

g Mesh1 Model

usemtl Color_D15
v 15 35.92 10.04
vt 395.276 1414.17
vn -1 1.60782e-016 -1.15506e-015
v 15 2.55301e-015 0.04
vt 1.5748 1.95462e-013
v 15 2.89224e-015 10.04
vt 395.276 2.08818e-013
f 1/1/1 2/2/1 3/3/1

v 15 35.92 0.04
vt 1.5748 1414.17
f 2/2/1 1/1/1 4/4/1

vt 590.551 -395.276
vn 9.64079e-017 1 1.69613e-017
v 16.4098 35.92 11.253
vt 646.056 -443.031
vt 590.551 -1.5748
f 1/5/2 5/6/2 4/7/2

v 10 35.92 11.253
vt 393.701 -443.031
f 1/5/2 6/8/2 5/6/2

v 10 35.92 10.04
vt 393.701 -395.276
f 6/8/2 1/5/2 7/9/2

vt -590.551 1414.17
vn 1.30104e-015 9.54082e-017 -1
vt -590.551 1.5158e-013
vt -393.701 1414.17
f 1/10/3 3/11/3 7/12/3

v 0 37.92 10.04
vt -5.14269e-013 1492.91
f 3/11/3 8/13/3 7/12/3

v 0 0 10.04
vt -5.14269e-013 3.77125e-014
f 8/13/3 3/11/3 9/14/3

v -2.31012e-014 3.39226e-016 20.04
vt 788.976 1.33554e-014
vn -1 0 -2.31012e-015
vt 395.276 1492.91
vt 395.276 0
f 10/15/4 8/16/4 9/17/4

v -2.31012e-014 37.92 20.04
vt 788.976 1492.91
f 8/16/4 10/15/4 11/18/4

v 25 5.15962e-015 20.04
vt 984.252 1.37021e-013
vn 2.54619e-016 8.37969e-017 1
vt -1.11038e-012 1492.91
vt -1.11038e-012 -5.27584e-014
f 12/19/5 11/20/5 10/21/5

v 10 35.92 20.04
vt 393.701 1414.17
f 11/20/5 12/19/5 13/22/5

v 25 35.92 20.04
vt 984.252 1414.17
f 13/22/5 12/19/5 14/23/5

v 25 4.48117e-015 0.04
vt -1.5748 1.81738e-014
vn 1 1.60782e-016 -2.88765e-016
vt -788.976 1414.17
vt -788.976 4.48845e-014
f 15/24/6 14/25/6 12/26/6

v 25 35.92 0.04
vt -1.5748 1414.17
f 14/25/6 15/24/6 16/27/6

vt -984.252 1.76487e-013
vn -7.21911e-016 4.01955e-017 -1
vt -590.551 1414.17
vt -984.252 1414.17
f 15/28/7 4/29/7 16/30/7

vt -590.551 1.00575e-013
f 4/29/7 15/28/7 2/31/7

v 16.4098 35.92 1.29008
vt 646.056 -50.7906
vt 984.252 -1.5748
f 4/7/2 17/32/2 16/33/2

f 4/7/2 5/6/2 17/32/2

vt -443.031 1414.17
vn 1 0 5.7968e-016
v 16.4098 34.92 1.29008
vt -50.7906 1374.8
vt -50.7906 1414.17
f 5/34/8 18/35/8 17/36/8

v 16.4098 34.92 11.253
vt -443.031 1374.8
f 18/35/8 5/34/8 19/37/8

usemtl Color_007
vt 646.056 1414.17
vn -3.60402e-015 1.87945e-031 1
v 10 34.92 11.253
vt 393.701 1374.8
vt 646.056 1374.8
f 5/38/9 20/39/9 19/40/9

vt 393.701 1414.17
f 20/39/9 5/38/9 6/41/9

usemtl Color_D15
vt -443.031 1414.17
vn 1 1.36929e-015 -1.37667e-016
v 10 35.92 18.7601
vt -738.586 1414.17
vt -443.031 1374.8
f 6/42/10 21/43/10 20/44/10

v 10 37.92 10.04
vt -395.276 1492.91
f 22/45/10 21/43/10 6/42/10

v 10 37.92 20.04
vt -788.976 1492.91
f 23/46/10 21/43/10 22/45/10

vt -788.976 1414.17
f 21/43/10 23/46/10 13/47/10

vt 393.701 1492.91
f 11/20/5 13/22/5 23/48/5

v 1.02759 37.92 18.9876
vt 40.4562 -747.541
vn 0 1 -0
vt -9.09495e-013 -788.976
vt 393.701 -788.976
f 24/49/11 11/50/11 23/51/11

vt 0 -395.276
f 11/50/11 24/49/11 8/52/11

v 1.02759 37.92 10.9876
vt 40.4562 -432.581
f 8/52/11 24/49/11 25/53/11

vt -747.541 1492.91
vn 1 -8.47191e-031 -2.88765e-015
v 1.02759 36.92 10.9876
vt -432.581 1453.54
vt -432.581 1492.91
f 24/54/12 26/55/12 25/56/12

v 1.02759 36.92 18.9876
vt -747.541 1453.54
f 26/55/12 24/54/12 27/57/12

vt -40.4562 1492.91
vn 3.00405e-015 0 -1
v 8.71759 36.92 18.9876
vt -343.212 1453.54
vt -40.4562 1453.54
f 24/58/13 28/59/13 27/60/13

v 8.71759 37.92 18.9876
vt -343.212 1492.91
f 28/59/13 24/58/13 29/61/13

vt 343.212 -747.541
f 24/49/11 23/51/11 29/62/11

v 8.71759 37.92 10.9876
vt 343.212 -432.581
f 29/62/11 23/51/11 30/63/11

vt 393.701 -395.276
f 22/64/11 30/63/11 23/51/11

f 22/64/11 25/53/11 30/63/11

f 25/53/11 22/64/11 8/52/11

vt -393.701 1492.91
f 7/12/3 8/13/3 22/65/3

vt -395.276 1414.17
f 22/45/10 6/42/10 7/66/10

vt 40.4562 1453.54
vn 0 0 1
vt 343.212 1492.91
vt 40.4562 1492.91
f 26/67/14 30/68/14 25/69/14

v 8.71759 36.92 10.9876
vt 343.212 1453.54
f 30/68/14 26/67/14 31/70/14

usemtl Color_007
f 27/49/11 31/63/11 26/53/11

f 31/63/11 27/49/11 28/62/11

usemtl Color_D15
vt 747.541 1453.54
vn -1 6.01966e-045 -7.21911e-016
vt 432.581 1492.91
vt 432.581 1453.54
f 28/71/15 30/72/15 31/73/15

vt 747.541 1492.91
f 30/72/15 28/71/15 29/74/15

vt 984.252 -788.976
vt 393.701 -738.586
vt 393.701 -788.976
f 14/75/2 21/76/2 13/77/2

v 23.5598 35.92 18.7601
vt 927.552 -738.586
f 21/76/2 14/75/2 32/78/2

v 23.5598 35.92 1.29008
vt 927.552 -50.7906
f 32/78/2 14/75/2 33/79/2

f 16/33/2 33/79/2 14/75/2

f 16/33/2 17/32/2 33/79/2

vt 646.056 1374.8
vn -8.07733e-016 0 1
vt 927.552 1414.17
vt 646.056 1414.17
f 18/80/16 33/81/16 17/82/16

v 23.5598 34.92 1.29008
vt 927.552 1374.8
f 33/81/16 18/80/16 34/83/16

usemtl Color_007
vt 646.056 -50.7906
vn 2.19626e-016 1 3.06983e-017
v 20.2212 34.92 2.12438
vt 796.109 -83.6372
vt 927.552 -50.7906
f 18/84/17 35/85/17 34/86/17

v 20.2212 34.92 4.12438
vt 796.109 -162.377
f 35/85/17 18/84/17 36/87/17

v 23.5598 34.92 18.7601
vt 927.552 -738.586
f 18/84/17 37/88/17 36/87/17

vt 646.056 -443.031
f 19/89/17 37/88/17 18/84/17

v 10 34.92 18.7601
vt 393.701 -738.586
f 19/89/17 38/90/17 37/88/17

vt 393.701 -443.031
f 38/90/17 19/89/17 20/91/17

usemtl Color_D15
vt -738.586 1374.8
f 20/44/10 21/43/10 38/92/10

vt -393.701 1414.17
vn -8.51824e-016 0 -1
vt -927.552 1374.8
vt -393.701 1374.8
f 21/93/18 37/94/18 38/95/18

vt -927.552 1414.17
f 37/94/18 21/93/18 32/96/18

vt 50.7906 1414.17
vn -1 0 -3.30583e-016
vt 738.586 1374.8
vt 738.586 1414.17
f 33/97/19 37/98/19 32/99/19

vt 50.7906 1374.8
f 37/98/19 33/97/19 34/100/19

usemtl Color_007
v 22.2212 34.92 2.12438
vt 874.849 -83.6372
f 34/86/17 39/101/17 37/88/17

f 34/86/17 35/85/17 39/101/17

usemtl Color_006
v 20.2212 36.92 2.12438
vt -796.109 1453.54
vn -4.33147e-015 0 -1
vt -874.849 1374.8
vt -796.109 1374.8
f 40/102/20 39/103/20 35/104/20

v 22.2212 36.92 2.12438
vt -874.849 1453.54
f 39/103/20 40/102/20 41/105/20

vt 796.109 -83.6372
v 22.2212 36.92 4.12438
vt 874.849 -162.377
vt 874.849 -83.6372
f 40/106/11 42/107/11 41/108/11

v 20.2212 36.92 4.12438
vt 796.109 -162.377
f 42/107/11 40/106/11 43/109/11

vt 83.6372 1453.54
vn -1 0 -2.88765e-015
vt 162.377 1374.8
vt 162.377 1453.54
f 40/110/21 36/111/21 43/112/21

vt 83.6372 1374.8
f 36/111/21 40/110/21 35/113/21

vt 796.109 1374.8
vn -7.21911e-016 -7.21911e-016 1
vt 874.849 1453.54
vt 796.109 1453.54
f 36/114/22 42/115/22 43/116/22

v 22.2212 34.92 4.12438
vt 874.849 1374.8
f 42/115/22 36/114/22 44/117/22

usemtl Color_007
vt 874.849 -162.377
f 36/87/17 37/88/17 44/118/17

f 44/118/17 37/88/17 39/101/17

usemtl Color_006
vt -83.6372 1453.54
vn 1 1.44382e-015 1.44382e-015
vt -162.377 1374.8
vt -83.6372 1374.8
f 41/119/23 44/120/23 39/121/23

vt -162.377 1453.54
f 44/120/23 41/119/23 42/122/23

