# Alias OBJ Model File
# Exported from SketchUp, (c) 2000-2006 Google, Inc.
# File units = meters

mtllib highrise_7.mtl

g Mesh1 Model

usemtl FrontColor
v 10.7393 40 -5.74579
vt 422.806 226.212
vn 0 1 -0
v 7.74927 40 -7.93579
vt 305.09 312.433
v 7.74927 40 -5.74579
vt 305.09 226.212
f 1/1/1 2/2/1 3/3/1

v 15 40 -15
vt 590.551 590.551
f 4/4/1 2/2/1 1/1/1

v 5.28927 40 -7.93579
vt 208.239 312.433
f 4/4/1 5/5/1 2/2/1

v 0 40 -15
vt 0 590.551
f 6/6/1 5/5/1 4/4/1

v 2.79927 40 -5.74579
vt 110.208 226.212
f 5/5/1 6/6/1 7/7/1

v 2.79927 40 -2.21579
vt 110.208 87.236
f 7/7/1 6/6/1 8/8/1

v 0 40 -0
vt 0 0
f 9/9/1 8/8/1 6/6/1

v 15 40 -0
vt 590.551 0
f 8/8/1 9/9/1 10/10/1

v 0 0 -0
vn 0 0 1
vt 590.551 1574.8
vt 0 1574.8
f 11/9/2 10/11/2 9/12/2

v 15 0 -0
f 10/11/2 11/9/2 12/10/2

v 15 0 -15
vn 1 0 -0
f 13/10/3 10/12/3 12/9/3

f 10/12/3 13/10/3 4/11/3

vt -590.551 0
vn 0 0 -1
vt -590.551 1574.8
f 13/13/4 6/12/4 4/14/4

v 0 0 -15
f 6/12/4 13/13/4 14/9/4

vn -1 0 -0
f 11/9/5 6/14/5 14/13/5

f 6/14/5 11/9/5 9/12/5

f 4/4/1 1/1/1 10/10/1

v 10.7393 40 -2.21579
vt 422.806 87.236
f 15/15/1 10/10/1 1/1/1

f 8/8/1 10/10/1 15/15/1

v 10.7393 42 -2.21579
vt 422.806 1653.54
vt 110.208 1574.8
vt 422.806 1574.8
f 16/16/2 8/17/2 15/18/2

v 2.79927 42 -2.21579
vt 110.208 1653.54
f 8/17/2 16/16/2 17/19/2

v 2.79927 42 -5.74579
f 16/15/1 18/7/1 17/8/1

v 5.28927 42 -5.74579
vt 208.239 226.212
f 18/7/1 16/15/1 19/20/1

v 5.28927 42 -7.93579
f 19/20/1 16/15/1 20/5/1

v 7.74927 42 -5.74579
f 20/5/1 16/15/1 21/3/1

v 10.7393 42 -5.74579
f 21/3/1 16/15/1 22/1/1

vt 87.236 1653.54
vt 226.212 1574.8
vt 226.212 1653.54
f 16/21/3 1/22/3 22/23/3

vt 87.236 1574.8
f 1/22/3 16/21/3 15/24/3

vt -422.806 1574.8
vt -305.09 1653.54
vt -422.806 1653.54
f 1/25/4 21/26/4 22/27/4

vt -305.09 1574.8
f 21/26/4 1/25/4 3/28/4

vt 312.433 1574.8
f 2/29/3 21/23/3 3/22/3

v 7.74927 42 -7.93579
vt 312.433 1653.54
f 21/23/3 2/29/3 23/30/3

vt -208.239 1653.54
f 2/28/4 20/31/4 23/26/4

vt -208.239 1574.8
f 20/31/4 2/28/4 5/32/4

v 5.28927 40 -5.74579
vt -226.212 1574.8
vt -312.433 1653.54
vt -312.433 1574.8
f 24/33/5 20/34/5 5/35/5

vt -226.212 1653.54
f 20/34/5 24/33/5 19/36/5

vt -110.208 1653.54
f 24/32/4 18/37/4 19/31/4

vt -110.208 1574.8
f 18/37/4 24/32/4 7/38/4

f 5/5/1 7/7/1 24/20/1

vt -87.236 1574.8
f 8/39/5 18/36/5 7/33/5

vt -87.236 1653.54
f 18/36/5 8/39/5 17/40/5

f 23/2/1 20/5/1 21/3/1

