# Alias OBJ Model File
# Exported from SketchUp, (c) 2000-2006 Google, Inc.
# File units = meters

mtllib highrise_3.mtl

g Mesh1 Model

usemtl FrontColor
v -7.86429e-015 50 -20
vt 1.12925e-013 1968.5
vn -2.498e-016 0 -1
v 20 0 -20
vt -787.402 0
v -7.86429e-015 0 -20
vt 1.12925e-013 0
f 1/1/1 2/2/1 3/3/1

v 20 50 -20
vt -787.402 1968.5
f 2/2/1 1/1/1 4/4/1

v -1.58593e-015 50 -10
vt -6.24382e-014 393.701
vn 0 1 -0
vt 787.402 787.402
vt -3.09618e-013 787.402
f 5/5/2 4/6/2 1/7/2

v 20 50 -10
vt 787.402 393.701
f 4/6/2 5/5/2 6/8/2

v -1.58593e-015 40 -10
vt -1.87287e-014 1574.8
vn 1.11022e-016 2.73156e-016 1
vt 787.402 1968.5
vt -1.87287e-014 1968.5
f 7/9/3 6/10/3 5/11/3

v 10 40 -10
vt 393.701 1574.8
f 8/12/3 6/10/3 7/9/3

v 10 25 -10
vt 393.701 984.252
f 9/13/3 6/10/3 8/12/3

v 20 25 -10
vt 787.402 984.252
f 6/10/3 9/13/3 10/14/3

v 10 25 2.22371e-014
vt 393.701 -1.1597e-012
vn -2.88765e-016 1 -2.88765e-016
vt 787.402 393.701
vt 393.701 393.701
f 11/15/4 10/16/4 9/17/4

v 20 25 7.65681e-015
vt 787.402 -5.85666e-013
f 10/16/4 11/15/4 12/18/4

v 5.05338e-015 0 9.38485e-015
vt 1.98952e-013 8.53547e-030
vn -8.32667e-017 -2.31012e-017 1
vt 787.402 984.252
vt 393.701 984.252
f 13/19/5 12/20/5 11/21/5

v 20 0 -2.84217e-016
vt 787.402 -1.77311e-030
f 12/20/5 13/19/5 14/22/5

vt -1.98952e-013 -3.69482e-013
vn 0 -1 -0
vt -787.402 787.402
vt -787.402 1.11896e-014
f 13/23/6 2/24/6 14/25/6

vt 3.09618e-013 787.402
f 2/24/6 13/23/6 3/26/6

vt 3.69482e-013 0
vn -1 0 2.498e-016
vt -393.701 1574.8
vt -787.402 0
f 13/27/7 7/28/7 3/29/7

v 5.05338e-015 40 9.38485e-015
vt 3.69482e-013 1574.8
f 7/28/7 13/27/7 15/30/7

vt 1.98952e-013 1574.8
f 11/21/5 15/31/5 13/19/5

v 10 40 6.71605e-015
vt 393.701 1574.8
f 15/31/5 11/21/5 16/32/5

vt 393.701 984.252
vn 1 2.88765e-016 -2.498e-016
vt -3.62758e-013 1574.8
vt -9.73825e-013 984.252
f 9/33/8 16/34/8 11/35/8

vt 393.701 1574.8
f 16/34/8 9/33/8 8/36/8

vt 393.701 393.701
vt 1.98952e-013 -3.69482e-013
vt 393.701 -2.64411e-013
f 8/37/2 15/38/2 16/39/2

f 15/38/2 8/37/2 7/5/2

vt -787.402 1968.5
f 3/29/7 7/28/7 1/40/7

vt -393.701 1968.5
f 1/40/7 7/28/7 5/41/7

vt 393.701 984.252
vn 1 0 -2.498e-016
vt -1.85503e-013 0
vt 787.402 0
f 10/42/9 14/43/9 2/44/9

vt -4.98142e-013 984.252
f 14/43/9 10/42/9 12/45/9

vt 393.701 1968.5
f 10/42/9 2/44/9 6/46/9

vt 787.402 1968.5
f 6/46/9 2/44/9 4/47/9

