# Alias OBJ Model File
# Exported from SketchUp, (c) 2000-2006 Google, Inc.
# File units = meters

mtllib highrise_9.mtl

g Mesh1 Model

usemtl FrontColor
v 0 38 -0
vt 0 0
vn 0 1 -0
v 5.28572 38 -2.88901
vt 208.099 113.74
v 0 38 -20
vt 0 787.402
f 1/1/1 2/2/1 3/3/1

v 20 38 -0
vt 787.402 0
f 2/2/1 1/1/1 4/4/1

v 0 0 -0
vn 0 0 1
vt 787.402 1496.06
vt 0 1496.06
f 5/1/2 4/5/2 1/6/2

v 20 0 -0
f 4/5/2 5/1/2 6/4/2

v 20 0 -7
vt 275.591 0
vn 1 0 -0
f 7/7/3 4/6/3 6/1/3

v 20 38 -7
vt 275.591 1496.06
f 4/6/3 7/7/3 8/8/3

vt -787.402 0
vn 0 0 -1
v 15 38 -7
vt -590.551 1496.06
vt -787.402 1496.06
f 7/9/4 9/10/4 8/11/4

v 15 0 -7
vt -590.551 0
f 9/10/4 7/9/4 10/12/4

v 15 0 -13
vt 511.811 0
f 11/13/3 9/8/3 10/7/3

v 15 38 -13
vt 511.811 1496.06
f 9/8/3 11/13/3 12/14/3

vt 590.551 0
v 20 38 -13
vt 590.551 1496.06
f 11/15/2 13/5/2 12/16/2

v 20 0 -13
f 13/5/2 11/15/2 14/4/2

v 20 0 -20
f 15/4/3 13/14/3 14/13/3

v 20 38 -20
f 13/14/3 15/4/3 16/5/3

f 15/9/4 3/6/4 16/11/4

v 0 0 -20
f 3/6/4 15/9/4 17/1/4

vn -1 0 -0
f 5/1/5 3/11/5 17/9/5

f 3/11/5 5/1/5 1/6/5

v 5.28572 38 -17.269
vt 208.099 679.882
vt 787.402 787.402
f 3/3/1 18/17/1 16/18/1

f 18/17/1 3/3/1 2/2/1

vt -113.74 1496.06
v 5.28572 40 -17.269
vt -679.882 1574.8
vt -679.882 1496.06
f 2/19/5 19/20/5 18/21/5

v 5.28572 40 -2.88901
vt -113.74 1574.8
f 19/20/5 2/19/5 20/22/5

vt 208.099 1496.06
v 10.2657 40 -2.88901
vt 404.162 1574.8
vt 208.099 1574.8
f 2/23/2 21/24/2 20/25/2

v 10.2657 38 -2.88901
vt 404.162 1496.06
f 21/24/2 2/23/2 22/26/2

vt 404.162 113.74
f 2/2/1 4/4/1 22/27/1

vt 590.551 275.591
f 22/27/1 4/4/1 9/28/1

vt 787.402 275.591
f 9/28/1 4/4/1 8/29/1

v 10.2657 38 -17.269
vt 404.162 679.882
f 22/27/1 9/28/1 23/30/1

vt 590.551 511.811
f 12/31/1 23/30/1 9/28/1

f 16/18/1 23/30/1 12/31/1

f 16/18/1 18/17/1 23/30/1

vt -208.099 1574.8
vt -404.162 1496.06
vt -208.099 1496.06
f 19/32/4 23/33/4 18/34/4

v 10.2657 40 -17.269
vt -404.162 1574.8
f 23/33/4 19/32/4 24/35/4

f 19/17/1 21/27/1 24/30/1

f 21/27/1 19/17/1 20/2/1

vt 113.74 1574.8
vt 679.882 1496.06
vt 679.882 1574.8
f 21/36/3 23/37/3 24/38/3

vt 113.74 1496.06
f 23/37/3 21/36/3 22/39/3

vt 787.402 511.811
f 16/18/1 12/31/1 13/40/1

