# Alias OBJ Model File
# Exported from SketchUp, (c) 2000-2006 Google, Inc.
# File units = meters

mtllib highrise_8.mtl

g Mesh1 Model

usemtl FrontColor
v 0 0 -0
vt 0 0
vn 0 -1 -0
v 15 0 5
vt -590.551 -196.85
v 0 0 25
vt 0 -984.252
f 1/1/1 2/2/1 3/3/1

v 20 0 -0
vt -787.402 0
f 2/2/1 1/1/1 4/4/1

usemtl Color_D15
v 0 40 -0
vt 0 1574.8
vn 0 0 -1
f 5/5/2 4/4/2 1/1/2

v 20 40 -0
vt -787.402 1574.8
f 4/4/2 5/5/2 6/6/2

vn 0 1 -0
v 0.896979 40 1.15366
vt 35.3142 -45.4195
vt 787.402 0
f 5/1/3 7/7/3 6/8/3

v 0.896979 40 23.9737
vt 35.3142 -943.845
f 7/7/3 5/1/3 8/9/3

v 0 40 25
f 9/3/3 8/9/3 5/1/3

v 20 40 25
vt 787.402 -984.252
f 8/9/3 9/3/3 10/10/3

vn 0 0 1
vt 787.402 1574.8
f 3/1/4 10/11/4 9/5/4

v 20 0 25
f 10/11/4 3/1/4 11/8/4

usemtl FrontColor
v 15 0 15
vt -590.551 -590.551
vt -787.402 -984.252
f 3/3/1 12/12/1 11/13/1

f 12/12/1 3/3/1 2/2/1

usemtl Color_D15
vt -196.85 0
vn 1 0 -0
v 15 40 15
vt -590.551 1574.8
vt -590.551 0
f 2/14/5 13/15/5 12/16/5

v 15 40 5
vt -196.85 1574.8
f 13/15/5 2/14/5 14/17/5

vt 590.551 0
v 20 40 5
vt 590.551 1574.8
f 2/18/4 15/11/4 14/19/4

v 20 0 5
f 15/11/4 2/18/4 16/8/4

usemtl FrontColor
vt -787.402 -196.85
f 2/2/1 4/4/1 16/20/1

usemtl Color_D15
f 4/1/5 15/17/5 16/14/5

f 15/17/5 4/1/5 6/5/5

vt 590.551 -196.85
vt 787.402 -196.85
f 6/8/3 14/21/3 15/22/3

v 13.607 40 1.15366
vt 535.708 -45.4195
f 6/8/3 17/23/3 14/21/3

f 6/8/3 7/7/3 17/23/3

v 0.896979 39 1.15366
vt 35.3142 1535.43
vt 535.708 1574.8
vt 35.3142 1574.8
f 18/24/4 17/25/4 7/26/4

v 13.607 39 1.15366
vt 535.708 1535.43
f 17/25/4 18/24/4 19/27/4

usemtl Color_006
v 2.70154 39 2.1975
vt 106.36 -86.5156
f 18/7/3 20/28/3 19/23/3

v 2.70154 39 5.1975
vt 106.36 -204.626
f 20/28/3 18/7/3 21/29/3

v 0.896979 39 23.9737
f 22/9/3 21/29/3 18/7/3

v 13.607 39 23.9737
vt 535.708 -943.845
f 21/29/3 22/9/3 23/30/3

usemtl Color_D15
vt -35.3142 1574.8
vt -535.708 1535.43
vt -35.3142 1535.43
f 8/31/2 23/32/2 22/33/2

v 13.607 40 23.9737
vt -535.708 1574.8
f 23/32/2 8/31/2 24/34/2

f 8/9/3 10/10/3 24/30/3

v 14.5372 40 22.7914
vt 572.329 -897.298
f 24/30/3 10/10/3 25/35/3

v 17.3472 40 22.7914
vt 682.959 -897.298
f 25/35/3 10/10/3 26/36/3

v 17.3472 40 17.6714
vt 682.959 -695.723
f 26/36/3 10/10/3 27/37/3

v 20 40 15
vt 787.402 -590.551
f 28/38/3 27/37/3 10/10/3

vt 590.551 -590.551
f 13/39/3 27/37/3 28/38/3

v 14.5372 40 17.6714
vt 572.329 -695.723
f 27/37/3 13/39/3 29/40/3

f 14/21/3 29/40/3 13/39/3

f 14/21/3 24/30/3 29/40/3

f 14/21/3 17/23/3 24/30/3

vt 45.4195 1574.8
vn -1 0 2.5308e-016
vt 943.845 1535.43
vt 943.845 1574.8
f 17/41/6 23/42/6 24/43/6

vt 45.4195 1535.43
f 23/42/6 17/41/6 19/44/6

usemtl Color_006
v 6.61154 39 2.1975
vt 260.297 -86.5156
f 30/45/3 23/30/3 19/23/3

v 6.61154 39 5.1975
vt 260.297 -204.626
f 31/46/3 23/30/3 30/45/3

f 21/29/3 23/30/3 31/46/3

usemtl Color_D15
v 6.61154 41.35 5.1975
vt 260.297 1627.95
vt 106.36 1535.43
vt 260.297 1535.43
f 32/47/4 21/48/4 31/49/4

v 2.70154 41.35 5.1975
vt 106.36 1627.95
f 21/48/4 32/47/4 33/50/4

usemtl Color_006
vt -260.297 583.504
vn 0 0.971682 -0.236292
v 2.70154 40.728 2.63962
vt -106.36 479.865
vt -106.36 583.504
f 32/51/7 34/52/7 33/53/7

v 6.61154 40.728 2.63962
vt -260.297 479.865
f 34/52/7 32/51/7 35/54/7

usemtl Color_D15
vt -204.626 1627.95
vt -86.5156 1535.43
vt -103.922 1603.46
f 32/55/5 30/56/5 35/57/5

vt -204.626 1535.43
f 30/56/5 32/55/5 31/58/5

vt -260.297 1508.96
vn 0 0.247875 -0.968792
vt -106.36 1579.18
vt -260.297 1579.18
f 30/59/8 34/60/8 35/61/8

vt -106.36 1508.96
f 34/60/8 30/59/8 20/62/8

usemtl Color_006
f 19/23/3 20/28/3 30/45/3

usemtl Color_D15
vt 204.626 1535.43
vn -1 0 -0
vt 103.922 1603.46
vt 86.5156 1535.43
f 21/63/9 34/64/9 20/65/9

vt 204.626 1627.95
f 34/64/9 21/63/9 33/66/9

f 29/40/3 24/30/3 25/35/3

vt 695.723 1574.8
vt 897.298 1574.8
v 14.5372 42 17.6714
vt 695.723 1653.54
f 29/67/9 25/68/9 36/69/9

usemtl Color_006
vt 682.959 -262.802
vn 3.46089e-017 0.931457 0.363851
vt 572.329 -46.3937
vt 572.329 -262.802
f 26/70/10 36/71/10 25/72/10

v 17.3472 42 17.6714
vt 682.959 -46.3937
f 36/71/10 26/70/10 37/73/10

usemtl Color_D15
vt -695.723 1653.54
vt -897.298 1574.8
vt -695.723 1574.8
f 37/74/5 26/75/5 27/76/5

vt -682.959 1574.8
vt -572.329 1653.54
vt -682.959 1653.54
f 27/77/2 36/78/2 37/79/2

vt -572.329 1574.8
f 36/78/2 27/77/2 29/80/2

v 20 0 15
f 38/4/2 13/15/2 28/6/2

f 13/15/2 38/4/2 12/16/2

usemtl FrontColor
vt -787.402 -590.551
f 11/13/1 12/12/1 38/81/1

usemtl Color_D15
vt -984.252 1574.8
vt -984.252 0
f 38/16/5 10/82/5 11/83/5

f 10/82/5 38/16/5 28/15/5

vt -45.4195 1535.43
vt -943.845 1574.8
vt -943.845 1535.43
f 18/84/5 8/85/5 22/86/5

vt -45.4195 1574.8
f 8/85/5 18/84/5 7/87/5

vt 984.252 0
vt 984.252 1574.8
f 5/5/9 3/88/9 9/89/9

f 3/88/9 5/5/9 1/1/9

