# Alias OBJ Model File
# Exported from SketchUp, (c) 2000-2006 Google, Inc.
# File units = meters

mtllib highrise_4.mtl

g Mesh1 Model

usemtl Color_D20
v 0 45 20
vt 0 -787.402
vn 0 1 -0
v 2.65901 45 18.4974
vt 104.685 -728.242
v 0 45 -0
vt 0 0
f 1/1/1 2/2/1 3/3/1

v 20 45 20
vt 787.402 -787.402
f 2/2/1 1/1/1 4/4/1

usemtl Color_E14
v 0 0 20
vn 0 0 1
vt 787.402 1771.65
vt 0 1771.65
f 5/3/2 4/5/2 1/6/2

v 20 0 20
vt 787.402 0
f 4/5/2 5/3/2 6/7/2

v 20 0 -0
vn 1 0 -0
vt -787.402 1771.65
vt -787.402 0
f 7/3/3 4/8/3 6/9/3

v 20 45 -0
f 4/8/3 7/3/3 8/6/3

vn 0 0 -1
f 7/9/4 3/6/4 8/8/4

v 0 0 -0
f 3/6/4 7/9/4 9/3/4

vn -1 0 -0
f 5/7/5 3/6/5 9/3/5

f 3/6/5 5/7/5 1/5/5

usemtl Color_D20
v 3.11977 45 3.14374
vt 122.826 -123.769
f 3/3/1 10/10/1 8/7/1

v 2.65901 45 15.5374
vt 104.685 -611.707
f 10/10/1 3/3/1 11/11/1

f 11/11/1 3/3/1 2/2/1

usemtl Color_E14
vt 728.242 1771.65
v 2.65901 47 15.5374
vt 611.707 1850.39
vt 611.707 1771.65
f 2/12/5 12/13/5 11/14/5

v 2.65901 47 18.4974
vt 728.242 1850.39
f 12/13/5 2/12/5 13/15/5

vt 104.685 1771.65
v 5.61901 47 18.4974
vt 221.221 1850.39
vt 104.685 1850.39
f 2/16/2 14/17/2 13/18/2

v 5.61901 45 18.4974
vt 221.221 1771.65
f 14/17/2 2/16/2 15/19/2

usemtl Color_D20
vt 221.221 -728.242
f 2/2/1 4/4/1 15/20/1

v 5.61901 45 15.5374
vt 221.221 -611.707
f 15/20/1 4/4/1 16/21/1

v 16.1298 45 12.6037
vt 635.03 -496.21
f 16/21/1 4/4/1 17/22/1

v 16.1298 45 3.14374
vt 635.03 -123.769
f 17/22/1 4/4/1 18/23/1

f 8/7/1 18/23/1 4/4/1

f 8/7/1 10/10/1 18/23/1

usemtl Color_E14
v 3.11977 47 3.14374
vt -122.826 1850.39
vt -635.03 1771.65
vt -122.826 1771.65
f 19/24/4 18/25/4 10/26/4

v 16.1298 47 3.14374
vt -635.03 1850.39
f 18/25/4 19/24/4 20/27/4

v 4.16772 47 4.1887
vt 164.084 -164.91
f 19/10/1 21/28/1 20/23/1

v 4.16772 47 11.6287
vt 164.084 -457.823
f 21/28/1 19/10/1 22/29/1

v 3.11977 47 12.6037
vt 122.826 -496.21
f 23/30/1 22/29/1 19/10/1

v 16.1298 47 12.6037
f 22/29/1 23/30/1 24/22/1

v 3.11977 45 12.6037
vt 122.826 1771.65
vt 635.03 1850.39
vt 122.826 1850.39
f 25/31/2 24/32/2 23/33/2

vt 635.03 1771.65
f 24/32/2 25/31/2 17/34/2

usemtl Color_D20
f 25/30/1 16/21/1 17/22/1

f 16/21/1 25/30/1 11/11/1

f 10/10/1 11/11/1 25/30/1

usemtl Color_E14
vt 496.21 1771.65
vt 123.769 1850.39
vt 123.769 1771.65
f 25/35/5 19/36/5 10/37/5

vt 496.21 1850.39
f 19/36/5 25/35/5 23/38/5

usemtl Color_D20
vt -104.685 1850.39
vt -221.221 1771.65
vt -104.685 1771.65
f 12/39/4 16/40/4 11/41/4

v 5.61901 47 15.5374
vt -221.221 1850.39
f 16/40/4 12/39/4 26/42/4

usemtl Color_E14
f 12/11/1 14/20/1 26/21/1

f 14/20/1 12/11/1 13/2/1

vt -728.242 1850.39
vt -611.707 1771.65
vt -611.707 1850.39
f 14/43/3 16/44/3 26/45/3

vt -728.242 1771.65
f 16/44/3 14/43/3 15/46/3

vt -123.769 1771.65
vt -496.21 1850.39
vt -496.21 1771.65
f 18/47/3 24/48/3 17/49/3

vt -123.769 1850.39
f 24/48/3 18/47/3 20/50/3

v 15.0477 47 4.1887
vt 592.43 -164.91
f 20/23/1 27/51/1 24/22/1

f 20/23/1 21/28/1 27/51/1

v 4.16772 46 4.1887
vt 164.084 1811.02
vt 592.43 1850.39
vt 164.084 1850.39
f 28/52/2 27/53/2 21/54/2

v 15.0477 46 4.1887
vt 592.43 1811.02
f 27/53/2 28/52/2 29/55/2

usemtl Color_D20
v 15.0477 46 11.6287
vt 592.43 -457.823
f 28/28/1 30/56/1 29/51/1

v 4.16772 46 11.6287
f 30/56/1 28/28/1 31/29/1

usemtl Color_E14
vt -164.91 1811.02
vt -457.823 1850.39
vt -457.823 1811.02
f 28/57/3 22/58/3 31/59/3

vt -164.91 1850.39
f 22/58/3 28/57/3 21/60/3

vt -164.084 1850.39
vt -592.43 1811.02
vt -164.084 1811.02
f 22/61/4 30/62/4 31/63/4

v 15.0477 47 11.6287
vt -592.43 1850.39
f 30/62/4 22/61/4 32/64/4

f 22/29/1 24/22/1 32/56/1

f 32/56/1 24/22/1 27/51/1

vt 164.91 1850.39
vt 457.823 1811.02
vt 457.823 1850.39
f 27/65/5 30/66/5 32/67/5

vt 164.91 1811.02
f 30/66/5 27/65/5 29/68/5

