# Alias OBJ Model File
# Exported from SketchUp, (c) 2000-2006 Google, Inc.
# File units = meters

mtllib highrise_6.mtl

g Mesh1 Model

usemtl Color_D09
v 0 40 10
vt 0 -393.701
vn 0 1 -0
v 0.935925 40 9.06553
vt 36.8474 -356.911
v 0 40 -0
vt 0 0
f 1/1/1 2/2/1 3/3/1

v 20 40 10
vt 787.402 -393.701
f 2/2/1 1/1/1 4/4/1

v 0 32.67 10
vt 0 1286.22
vn 0 0 1
vt 787.402 1574.8
vt 0 1574.8
f 5/5/2 4/6/2 1/7/2

v 20 32.67 10
vt 787.402 1286.22
f 5/5/2 6/8/2 4/6/2

v 1.06219 32.67 10
vt 41.8185 1286.22
f 7/9/2 6/8/2 5/5/2

v 3.51219 32.67 10
vt 138.275 1286.22
f 8/10/2 6/8/2 7/9/2

v 18.5622 32.67 10
vt 730.795 1286.22
f 8/10/2 9/11/2 6/8/2

v 3.51219 31.67 10
vt 138.275 1246.85
f 10/12/2 9/11/2 8/10/2

v 18.5622 31.67 10
vt 730.795 1246.85
f 9/11/2 10/12/2 11/13/2

usemtl Color_D20
vt 730.795 -393.701
vt 138.275 -393.701
v 3.51219 31.67 16.3314
vt 138.275 -642.968
f 11/14/1 10/15/1 12/16/1

vt -393.701 1246.85
vn 1 -1.7649e-016 -1.92412e-016
v 3.51219 34.67 16.3314
vt -642.968 1364.96
vt -642.968 1246.85
f 10/17/3 13/18/3 12/19/3

v 3.51219 34.67 12.3672
vt -486.898 1364.96
f 13/18/3 10/17/3 14/20/3

vt -393.701 1286.22
f 14/20/3 10/17/3 8/21/3

vt -41.8185 1130.83
vn 2.12538e-017 0.763867 -0.645374
vt -138.275 1252.84
vt -138.275 1130.83
f 7/22/4 14/23/4 8/24/4

v 1.06219 34.67 12.3672
vt -41.8185 1252.84
f 14/23/4 7/22/4 15/25/4

v 1.06219 32.67 16.3314
vt 642.968 1286.22
vn -1 0 -0
vt 486.898 1364.96
vt 393.701 1286.22
f 16/26/5 15/27/5 7/28/5

v 1.06219 34.67 16.3314
vt 642.968 1364.96
f 15/27/5 16/26/5 17/29/5

v 1.60521 34 16.3314
vt 63.1971 1338.58
vt 41.8185 1364.96
f 16/9/2 18/30/2 17/31/2

v 1.06219 31.67 16.3314
vt 41.8185 1246.85
f 19/32/2 18/30/2 16/9/2

v 1.60521 31.67 16.3314
vt 63.1971 1246.85
f 18/30/2 19/32/2 20/33/2

vt 41.8185 -642.968
v 18.5622 31.67 18.6672
vt 730.795 -734.929
vt 63.1971 -642.968
f 19/34/1 21/35/1 20/36/1

v 1.06219 31.67 18.6672
vt 41.8185 -734.929
f 21/35/1 19/34/1 22/37/1

usemtl Color_D09
vn 1 0 -0
v 1.06219 32.67 18.6672
vt -734.929 1286.22
vt -734.929 1246.85
f 19/19/6 23/38/6 22/39/6

vt -642.968 1286.22
f 23/38/6 19/19/6 16/40/6

vt 41.8185 -393.701
vn -3.24111e-017 1 -2.15195e-017
vt 41.8185 -734.929
vt 41.8185 -642.968
f 7/41/7 23/42/7 16/43/7

vt 4.16879e-014 -393.701
f 23/42/7 7/41/7 5/44/7

v 0 32.67 20
vt 4.16879e-014 -787.402
f 24/45/7 23/42/7 5/44/7

v 20 32.67 20
vt 787.402 -787.402
f 23/42/7 24/45/7 25/46/7

v 0 0 20
f 26/3/2 25/8/2 24/5/2

v 20 0 20
vt 787.402 0
f 25/8/2 26/3/2 27/47/2

v 20 0 -0
vt -787.402 1286.22
vt -787.402 0
f 28/3/6 25/48/6 27/49/6

vt -393.701 1286.22
f 25/48/6 28/3/6 6/50/6

vt -393.701 1574.8
f 6/50/6 28/3/6 4/51/6

v 20 40 -0
f 4/51/6 28/3/6 29/7/6

vn 0 0 -1
vt -787.402 1574.8
f 28/49/8 3/7/8 29/52/8

v 0 0 -0
f 3/7/8 28/49/8 30/3/8

vt 393.701 1286.22
f 30/3/5 5/53/5 3/7/5

f 26/47/5 5/53/5 30/3/5

f 5/53/5 26/47/5 24/8/5

vt 393.701 1574.8
f 3/7/5 5/53/5 1/54/5

v 0.935925 40 0.865534
vt 36.8474 -34.0761
f 3/3/1 31/55/1 29/47/1

f 31/55/1 3/3/1 2/2/1

vt -356.911 1574.8
v 0.935925 39 0.865534
vt -34.0761 1535.43
vt -34.0761 1574.8
f 2/56/6 32/57/6 31/58/6

v 0.935925 39 9.06553
vt -356.911 1535.43
f 32/57/6 2/56/6 33/59/6

vt -36.8474 1574.8
v 19.1159 39 9.06553
vt -752.595 1535.43
vt -36.8474 1535.43
f 2/60/8 34/61/8 33/62/8

v 19.1159 40 9.06553
vt -752.595 1574.8
f 34/61/8 2/60/8 35/63/8

vt 752.595 -356.911
f 2/2/1 4/4/1 35/64/1

v 19.1159 40 0.865534
vt 752.595 -34.0761
f 35/64/1 4/4/1 36/65/1

f 29/47/1 36/65/1 4/4/1

f 29/47/1 31/55/1 36/65/1

vt 36.8474 1535.43
vt 752.595 1574.8
vt 36.8474 1574.8
f 32/66/2 36/67/2 31/68/2

v 19.1159 39 0.865534
vt 752.595 1535.43
f 36/67/2 32/66/2 37/69/2

usemtl Color_D20
v 2.57669 39 2.29676
vt 101.444 -90.4238
f 32/55/1 38/70/1 37/65/1

v 2.57669 39 5.81676
vt 101.444 -229.006
f 38/70/1 32/55/1 39/71/1

f 33/2/1 39/71/1 32/55/1

f 39/71/1 33/2/1 34/64/1

v 6.09669 39 5.81676
vt 240.027 -229.006
f 39/71/1 34/64/1 40/72/1

v 6.09669 39 2.29676
vt 240.027 -90.4238
f 40/72/1 34/64/1 41/73/1

f 37/65/1 41/73/1 34/64/1

f 37/65/1 38/70/1 41/73/1

usemtl Color_D09
v 2.57669 42 2.29676
vt -101.444 1653.54
vt -240.027 1535.43
vt -101.444 1535.43
f 42/74/8 41/75/8 38/76/8

v 6.09669 42 2.29676
vt -240.027 1653.54
f 41/75/8 42/74/8 43/77/8

v 3.08341 42 2.64537
vt 121.394 -104.148
f 42/70/1 44/78/1 43/73/1

v 3.08341 42 5.40537
vt 121.394 -212.81
f 44/78/1 42/70/1 45/79/1

v 2.57669 42 5.81676
f 46/71/1 45/79/1 42/70/1

v 6.09669 42 5.81676
f 45/79/1 46/71/1 47/72/1

vt 101.444 1535.43
vt 240.027 1653.54
vt 101.444 1653.54
f 39/80/2 47/81/2 46/82/2

vt 240.027 1535.43
f 47/81/2 39/80/2 40/83/2

vt -90.4238 1535.43
vt -229.006 1653.54
vt -229.006 1535.43
f 41/84/6 47/85/6 40/86/6

vt -90.4238 1653.54
f 47/85/6 41/84/6 43/87/6

v 5.65341 42 2.64537
vt 222.575 -104.148
f 43/73/1 48/88/1 47/72/1

f 43/73/1 44/78/1 48/88/1

v 3.08341 41.5 2.64537
vt 121.394 1633.86
vt 222.575 1653.54
vt 121.394 1653.54
f 49/89/2 48/90/2 44/91/2

v 5.65341 41.5 2.64537
vt 222.575 1633.86
f 48/90/2 49/89/2 50/92/2

usemtl Color_D20
v 5.65341 41.5 5.40537
vt 222.575 -212.81
f 49/78/1 51/93/1 50/88/1

v 3.08341 41.5 5.40537
f 51/93/1 49/78/1 52/79/1

usemtl Color_D09
vt -104.148 1633.86
vt -212.81 1653.54
vt -212.81 1633.86
f 49/94/6 45/95/6 52/96/6

vt -104.148 1653.54
f 45/95/6 49/94/6 44/97/6

vt -121.394 1653.54
vt -222.575 1633.86
vt -121.394 1633.86
f 45/98/8 51/99/8 52/100/8

v 5.65341 42 5.40537
vt -222.575 1653.54
f 51/99/8 45/98/8 53/101/8

f 45/79/1 47/72/1 53/93/1

f 53/93/1 47/72/1 48/88/1

vt 104.148 1653.54
vt 212.81 1633.86
vt 212.81 1653.54
f 48/102/5 51/103/5 53/104/5

vt 104.148 1633.86
f 51/103/5 48/102/5 50/105/5

vt 90.4238 1653.54
vt 229.006 1535.43
vt 229.006 1653.54
f 42/106/5 39/107/5 46/108/5

vt 90.4238 1535.43
f 39/107/5 42/106/5 38/109/5

vt 356.911 1535.43
vt 34.0761 1574.8
vt 34.0761 1535.43
f 34/110/5 36/111/5 37/112/5

vt 356.911 1574.8
f 36/111/5 34/110/5 35/113/5

v 18.5622 32.67 18.6672
f 6/4/7 54/35/7 25/46/7

f 54/35/7 6/4/7 9/14/7

vt 393.701 1286.22
vn -1 0 6.66338e-016
vt 734.929 1246.85
vt 734.929 1286.22
f 9/114/9 21/115/9 54/116/9

vt 393.701 1246.85
f 21/115/9 9/114/9 11/117/9

usemtl Color_D20
f 12/16/1 21/35/1 11/14/1

v 2.89521 31.67 16.3314
vt 113.985 -642.968
f 55/118/1 21/35/1 12/16/1

f 20/36/1 21/35/1 55/118/1

v 1.60521 31.67 15.8314
vt 63.1971 -623.283
f 20/36/1 55/118/1 56/119/1

v 2.89521 31.67 15.8314
vt 113.985 -623.283
f 57/120/1 56/119/1 55/118/1

v 2.89521 34 15.8314
vt 113.985 1338.58
vt 113.985 1246.85
f 58/121/2 56/33/2 57/122/2

v 1.60521 34 15.8314
f 56/33/2 58/121/2 59/30/2

vt -113.985 -623.283
vn 0 -1 -0
vt -63.1971 -642.968
vt -63.1971 -623.283
f 58/123/10 18/124/10 59/125/10

v 2.89521 34 16.3314
vt -113.985 -642.968
f 18/124/10 58/123/10 60/126/10

vt 623.283 1338.58
vt 642.968 1246.85
vt 642.968 1338.58
f 58/127/5 55/128/5 60/129/5

vt 623.283 1246.85
f 55/128/5 58/127/5 57/130/5

vt 138.275 1364.96
f 55/122/2 13/131/2 60/121/2

f 13/131/2 55/122/2 12/12/2

f 60/121/2 13/131/2 18/30/2

f 17/31/2 18/30/2 13/131/2

vt 41.8185 -486.898
f 13/16/1 15/132/1 17/34/1

vt 138.275 -486.898
f 15/132/1 13/16/1 14/133/1

vt -642.968 1338.58
vt -623.283 1246.85
vt -623.283 1338.58
f 18/134/6 56/135/6 59/136/6

f 56/135/6 18/134/6 20/19/6

usemtl Color_D09
vt -730.795 1246.85
vt -41.8185 1286.22
vt -730.795 1286.22
f 21/137/8 23/138/8 54/139/8

vt -41.8185 1246.85
f 23/138/8 21/137/8 22/140/8

f 23/42/7 25/46/7 54/35/7

