# Alias OBJ Model File
# Exported from SketchUp, (c) 2000-2006 Google, Inc.
# File units = meters

mtllib highrise_3.mtl

g Mesh1 Model

usemtl FrontColor
v 0 40 20
vt 0 -787.402
vn 0 1 -0
v 2.47866 40 18.4581
vt 97.5852 -726.697
v 0 40 -0
vt 0 0
f 1/1/1 2/2/1 3/3/1

v 15 40 20
vt 590.551 -787.402
f 2/2/1 1/1/1 4/4/1

v 0 0 20
vn 0 0 1
vt 590.551 1574.8
vt 0 1574.8
f 5/3/2 4/5/2 1/6/2

v 15 0 20
vt 590.551 0
f 4/5/2 5/3/2 6/7/2

v 15 0 -0
vn 1 0 -0
vt -787.402 1574.8
vt -787.402 0
f 7/3/3 4/8/3 6/9/3

v 15 40 -0
f 4/8/3 7/3/3 8/6/3

vt -590.551 0
vn 0 0 -1
vt -590.551 1574.8
f 7/10/4 3/6/4 8/11/4

v 0 0 -0
f 3/6/4 7/10/4 9/3/4

vt 787.402 0
vn -1 0 -0
f 5/12/5 3/6/5 9/3/5

vt 787.402 1574.8
f 3/6/5 5/12/5 1/13/5

v 1.94507 40 1.99218
vt 76.5777 -78.4322
f 3/3/1 10/14/1 8/7/1

v 1.94507 40 8.15218
vt 76.5777 -320.952
f 10/14/1 3/3/1 11/15/1

f 3/3/1 2/2/1 11/15/1

v 2.47866 40 14.4981
vt 97.5852 -570.792
f 12/16/1 11/15/1 2/2/1

v 5.11507 40 8.15218
vt 201.381 -320.952
f 11/15/1 12/16/1 13/17/1

v 4.77866 40 14.4981
vt 188.136 -570.792
f 13/17/1 12/16/1 14/18/1

v 2.47866 42 14.4981
vt -97.5852 1653.54
vt -188.136 1574.8
vt -97.5852 1574.8
f 15/19/4 14/20/4 12/21/4

v 4.77866 42 14.4981
vt -188.136 1653.54
f 14/20/4 15/19/4 16/22/4

v 4.77866 42 18.4581
vt 188.136 -726.697
f 15/16/1 17/23/1 16/18/1

v 2.47866 42 18.4581
f 17/23/1 15/16/1 18/2/1

vt 570.792 1653.54
vt 726.697 1574.8
vt 726.697 1653.54
f 15/24/5 2/25/5 18/26/5

vt 570.792 1574.8
f 2/25/5 15/24/5 12/27/5

vt 97.5852 1574.8
vt 188.136 1653.54
vt 97.5852 1653.54
f 2/28/2 17/29/2 18/30/2

v 4.77866 40 18.4581
vt 188.136 1574.8
f 17/29/2 2/28/2 19/31/2

f 2/2/1 4/4/1 19/23/1

f 19/23/1 4/4/1 14/18/1

f 14/18/1 4/4/1 13/17/1

v 5.11507 40 1.99218
vt 201.381 -78.4322
f 13/17/1 4/4/1 20/32/1

f 8/7/1 20/32/1 4/4/1

f 8/7/1 10/14/1 20/32/1

v 1.94507 42 1.99218
vt -76.5777 1653.54
vt -201.381 1574.8
vt -76.5777 1574.8
f 21/33/4 20/34/4 10/35/4

v 5.11507 42 1.99218
vt -201.381 1653.54
f 20/34/4 21/33/4 22/36/4

v 5.11507 42 8.15218
f 21/14/1 23/17/1 22/32/1

v 1.94507 42 8.15218
f 23/17/1 21/14/1 24/15/1

vt 78.4322 1653.54
vt 320.952 1574.8
vt 320.952 1653.54
f 21/37/5 11/38/5 24/39/5

vt 78.4322 1574.8
f 11/38/5 21/37/5 10/40/5

vt 76.5777 1574.8
vt 201.381 1653.54
vt 76.5777 1653.54
f 11/41/2 23/42/2 24/43/2

vt 201.381 1574.8
f 23/42/2 11/41/2 13/44/2

vt -78.4322 1574.8
vt -320.952 1653.54
vt -320.952 1574.8
f 20/45/3 23/46/3 13/47/3

vt -78.4322 1653.54
f 23/46/3 20/45/3 22/48/3

vt -570.792 1574.8
vt -726.697 1653.54
vt -726.697 1574.8
f 14/49/3 17/50/3 19/51/3

vt -570.792 1653.54
f 17/50/3 14/49/3 16/52/3

