# Alias OBJ Model File
# Exported from SketchUp, (c) 2000-2006 Google, Inc.
# File units = meters

mtllib highrise_2.mtl

g Mesh1 Model

usemtl FrontColor
v 20 0 -0
vt -787.402 0
vn 0 -1 -0
v 0 0 20
vt 0 -787.402
v 0 0 -0
vt 0 0
f 1/1/1 2/2/1 3/3/1

v 20 0 20
vt -787.402 -787.402
f 2/2/1 1/1/1 4/4/1

vn 1 0 -0
v 20 35 20
vt -787.402 1377.95
f 1/3/2 5/5/2 4/1/2

v 20 35 -0
vt 0 1377.95
f 5/5/2 1/3/2 6/6/2

vn 0 0 -1
v 0 35 -0
f 1/1/3 7/6/3 6/5/3

f 7/6/3 1/1/3 3/3/3

vt 787.402 0
vn -1 0 -0
f 2/7/4 7/6/4 3/3/4

v 0 35 20
vt 787.402 1377.95
f 7/6/4 2/7/4 8/8/4

vn 0 0 1
f 2/3/5 5/8/5 8/6/5

f 5/8/5 2/3/5 4/7/5

v 1.99002 35 6.78895
vt 78.3471 -267.281
vn 0 1 -0
vt 787.402 -787.402
f 9/9/6 8/2/6 5/10/6

f 8/2/6 9/9/6 7/3/6

v 1.99002 35 2.17895
vt 78.3471 -85.7854
f 10/11/6 7/3/6 9/9/6

f 7/3/6 10/11/6 6/7/6

v 6.60002 35 2.17895
vt 259.843 -85.7854
f 6/7/6 10/11/6 11/12/6

v 1.99002 37 2.17895
vt -78.3471 1456.69
vt -259.843 1377.95
vt -78.3471 1377.95
f 12/13/3 11/14/3 10/15/3

v 6.60002 37 2.17895
vt -259.843 1456.69
f 11/14/3 12/13/3 13/16/3

v 6.60002 37 6.78895
vt 259.843 -267.281
f 12/11/6 14/17/6 13/12/6

v 1.99002 37 6.78895
f 14/17/6 12/11/6 15/9/6

vt 85.7854 1456.69
vt 267.281 1377.95
vt 267.281 1456.69
f 12/18/4 9/19/4 15/20/4

vt 85.7854 1377.95
f 9/19/4 12/18/4 10/21/4

vt 78.3471 1377.95
vt 259.843 1456.69
vt 78.3471 1456.69
f 9/22/5 14/23/5 15/24/5

v 6.60002 35 6.78895
vt 259.843 1377.95
f 14/23/5 9/22/5 16/25/5

f 9/9/6 5/10/6 16/17/6

f 16/17/6 5/10/6 11/12/6

f 6/7/6 11/12/6 5/10/6

vt -85.7854 1377.95
vt -267.281 1456.69
vt -267.281 1377.95
f 11/26/2 14/27/2 16/28/2

vt -85.7854 1456.69
f 14/27/2 11/26/2 13/29/2

