# Alias OBJ Model File
# Exported from SketchUp, (c) 2000-2006 Google, Inc.
# File units = meters

mtllib road_ew.mtl

g Mesh1 Model

usemtl Color_001
v 0.5 5 24.7
vt 19.685 -972.441
vn 0 1 -0
v 0.3 5 22.9
vt 11.811 -901.575
v 0.3 5 24.7
vt 11.811 -972.441
f 1/1/1 2/2/1 3/3/1

v 0.5 5 22.9
vt 19.685 -901.575
f 2/2/1 1/1/1 4/4/1

usemtl BackColor
vn -0 -1 0
f 3/3/2 2/2/2 1/1/2

usemtl Color_001
v 0.3 4.8 24.5
vt 964.567 188.976
vn -1 2.6406e-015 -7.55043e-013
vt 972.441 196.85
vt 901.575 196.85
f 5/5/3 3/6/3 2/7/3

v 0.3 0.1 24.7
vt 972.441 3.93701
f 3/6/3 5/5/3 6/8/3

usemtl BackColor
vn 1 -2.6406e-015 7.55043e-013
f 6/8/4 5/5/4 3/6/4

usemtl Color_001
v 0.3 0.1 24.5
vt 964.567 3.93701
f 7/9/3 6/8/3 5/5/3

usemtl FrontColor
v 0 0.1 25
vt 0 -984.252
vn 0 -1 -0
vt -11.811 -964.567
vt -11.811 -972.441
f 8/10/5 7/11/5 6/12/5

v 0 0.1 23
vt 0 -905.512
f 9/13/5 7/11/5 8/10/5

v 25 0.1 23
vt -984.252 -905.512
f 7/11/5 9/13/5 10/14/5

usemtl Color_004
vn -0 1 0
f 8/10/6 7/11/6 9/13/6

f 6/12/6 7/11/6 8/10/6

usemtl BackColor
f 5/5/4 6/8/4 7/9/4

usemtl Color_001
v 0.5 4.8 24.5
vt -19.685 188.976
vn 6.42501e-013 -3.37916e-015 -1
vt -11.811 3.93701
vt -11.811 188.976
f 11/15/7 7/16/7 5/17/7

v 0.5 0.1 24.5
vt -19.685 3.93701
f 7/16/7 11/15/7 12/18/7

usemtl BackColor
vn -6.42501e-013 3.37916e-015 1
f 12/18/8 11/15/8 7/16/8

usemtl Color_001
vt -964.567 188.976
vn 1 4.91485e-016 7.85905e-013
v 0.5 0.1 24.7
vt -972.441 3.93701
vt -964.567 3.93701
f 11/19/9 13/20/9 12/21/9

vt -972.441 196.85
f 11/19/9 1/22/9 13/20/9

vt -901.575 196.85
f 1/22/9 11/19/9 4/23/9

usemtl BackColor
vn -1 -4.91485e-016 -7.85905e-013
f 4/23/10 11/19/10 1/22/10

usemtl Color_001
v 0.5 4.8 22.9
vt -901.575 188.976
f 4/23/9 11/19/9 14/24/9

usemtl BackColor
f 14/24/10 11/19/10 4/23/10

usemtl Color_001
vt -19.685 -964.567
v 0.3 4.8 22.9
vt -11.811 -901.575
vt -19.685 -901.575
f 11/25/5 15/26/5 14/27/5

f 15/26/5 11/25/5 5/11/5

usemtl BackColor
f 5/11/6 11/25/6 15/26/6

f 5/17/8 7/16/8 11/15/8

f 14/27/6 15/26/6 11/25/6

usemtl Color_001
vt -11.811 196.85
vn 7.64888e-013 0 -1
vt -19.685 188.976
vt -11.811 188.976
f 2/28/11 14/29/11 15/30/11

vt -19.685 196.85
f 14/29/11 2/28/11 4/31/11

usemtl BackColor
vn -7.64888e-013 -0 1
f 15/30/12 14/29/12 2/28/12

f 4/31/12 2/28/12 14/29/12

f 4/4/2 1/1/2 2/2/2

usemtl Color_001
vt 901.575 188.976
f 5/5/3 2/7/3 15/32/3

usemtl BackColor
f 2/7/4 3/6/4 5/5/4

f 15/32/4 2/7/4 5/5/4

f 13/20/10 1/22/10 11/19/10

usemtl Color_001
vt 19.685 196.85
vn -1.00346e-012 -4.41987e-015 1
vt 11.811 3.93701
vt 19.685 3.93701
f 1/33/13 6/34/13 13/35/13

vt 11.811 196.85
f 6/34/13 1/33/13 3/36/13

usemtl BackColor
vn 1.00346e-012 4.41987e-015 -1
f 13/35/14 6/34/14 1/33/14

usemtl FrontColor
v 25 0.1 25
vt -984.252 -984.252
vt -19.685 -972.441
f 16/37/5 6/12/5 13/38/5

f 6/12/5 16/37/5 8/10/5

usemtl Color_004
f 8/10/6 16/37/6 6/12/6

usemtl FrontColor
v 25 0 25
vt -984.252 0
vn 0 0 -1
vt 0 3.93701
vt -984.252 3.93701
f 17/39/15 8/40/15 16/41/15

v 0 0 25
vt 0 0
f 8/40/15 17/39/15 18/42/15

usemtl Color_004
vn -0 -0 1
f 18/42/16 17/39/16 8/40/16

f 16/41/16 8/40/16 17/39/16

f 13/38/6 6/12/6 16/37/6

usemtl FrontColor
vt -19.685 -964.567
f 16/37/5 13/38/5 12/43/5

usemtl Color_004
f 12/43/6 13/38/6 16/37/6

usemtl BackColor
f 12/21/10 13/20/10 11/19/10

usemtl FrontColor
f 16/37/5 12/43/5 10/14/5

usemtl Color_004
f 10/14/6 12/43/6 16/37/6

usemtl FrontColor
f 7/11/5 10/14/5 12/43/5

usemtl Color_004
f 10/14/6 9/13/6 7/11/6

usemtl FrontColor
v 0 0 23
vn 0 0 1
vt 984.252 3.93701
f 19/42/17 10/44/17 9/40/17

v 25 0 23
vt 984.252 0
f 10/44/17 19/42/17 20/45/17

usemtl Color_004
vn -0 -0 -1
f 20/45/18 19/42/18 10/44/18

usemtl FrontColor
v 6.25 0 12.5
vt -246.063 -492.126
f 19/13/5 21/46/5 20/14/5

v 6.25 0 12.35
vt -246.063 -486.22
f 21/46/5 19/13/5 22/47/5

usemtl Color_008
f 20/14/6 21/46/6 19/13/6

usemtl FrontColor
v 12.5 0 12.5
vt -492.126 -492.126
f 20/14/5 21/46/5 23/48/5

usemtl Color_008
f 23/48/6 21/46/6 20/14/6

usemtl FrontColor
v 12.5 0 12.35
vt -492.126 -486.22
f 21/46/5 24/49/5 23/48/5

f 24/49/5 21/46/5 22/47/5

usemtl Color_000
f 22/47/6 21/46/6 24/49/6

usemtl Color_008
f 22/47/6 19/13/6 21/46/6

usemtl FrontColor
v 0 0 2
vt 0 -78.7402
f 25/50/5 22/47/5 19/13/5

v 25 0 2
vt -984.252 -78.7402
f 22/47/5 25/50/5 26/51/5

usemtl Color_008
f 19/13/6 22/47/6 25/50/6

f 26/51/6 25/50/6 22/47/6

usemtl FrontColor
v 0 0.1 2
f 27/40/15 26/39/15 25/42/15

v 25 0.1 2
f 26/39/15 27/40/15 28/41/15

usemtl Color_004
f 25/42/16 26/39/16 27/40/16

f 28/41/16 27/40/16 26/39/16

usemtl FrontColor
v 24.5 0.1 0.5
vt -964.567 -19.685
f 29/52/5 28/51/5 27/50/5

v 24.7 0.1 0.5
vt -972.441 -19.685
f 28/51/5 29/52/5 30/53/5

usemtl Color_004
f 27/50/6 28/51/6 29/52/6

f 30/53/6 29/52/6 28/51/6

usemtl Color_001
v 24.7 4.8 0.5
vt 972.441 188.976
vn -2.63046e-013 -3.78953e-031 1
vt 964.567 3.93701
vt 972.441 3.93701
f 31/54/19 29/55/19 30/56/19

v 24.5 4.8 0.5
vt 964.567 188.976
f 29/55/19 31/54/19 32/57/19

usemtl BackColor
vn 2.63046e-013 3.78953e-031 -1
f 30/56/20 29/55/20 31/54/20

f 32/57/20 31/54/20 29/55/20

usemtl Color_001
v 24.7 4.8 2.1
vt -972.441 -82.6772
f 33/58/5 32/52/5 31/53/5

v 24.5 4.8 2.1
vt -964.567 -82.6772
f 32/52/5 33/58/5 34/59/5

usemtl BackColor
f 34/59/6 33/58/6 32/52/6

usemtl Color_001
v 24.7 5 2.1
vt 972.441 196.85
vn -7.64888e-013 0 1
vt 964.567 188.976
vt 972.441 188.976
f 35/60/21 34/61/21 33/62/21

v 24.5 5 2.1
vt 964.567 196.85
f 34/61/21 35/60/21 36/63/21

usemtl BackColor
vn 7.64888e-013 -0 -1
f 33/62/22 34/61/22 35/60/22

f 36/63/22 35/60/22 34/61/22

usemtl Color_001
vt 972.441 -82.6772
v 24.5 5 0.3
vt 964.567 -11.811
vt 964.567 -82.6772
f 35/64/1 37/65/1 36/66/1

v 24.7 5 0.3
vt 972.441 -11.811
f 37/65/1 35/64/1 38/67/1

usemtl BackColor
f 36/66/2 37/65/2 35/64/2

usemtl Color_001
vt 11.811 196.85
vn -1 -7.08845e-016 -7.62855e-013
vt 82.6772 188.976
vt 82.6772 196.85
f 37/68/23 34/69/23 36/70/23

vt 19.685 188.976
f 34/69/23 37/68/23 32/71/23

usemtl BackColor
vn 1 7.08845e-016 7.62855e-013
f 36/70/24 34/69/24 37/68/24

f 32/71/24 37/68/24 34/69/24

usemtl Color_001
vt 19.685 3.93701
f 32/71/23 37/68/23 29/72/23

usemtl BackColor
f 29/72/24 37/68/24 32/71/24

usemtl Color_001
v 24.5 0.1 0.3
vt 11.811 3.93701
f 29/72/23 37/68/23 39/73/23

usemtl BackColor
f 39/73/24 37/68/24 29/72/24

usemtl Color_001
vt -972.441 196.85
vn 9.74129e-013 -1.14865e-027 -1
vt -964.567 3.93701
vt -964.567 196.85
f 38/74/25 39/75/25 37/76/25

v 24.7 0.1 0.3
vt -972.441 3.93701
f 39/75/25 38/74/25 40/77/25

usemtl BackColor
vn -9.74129e-013 1.14865e-027 1
f 40/77/26 38/74/26 39/75/26

usemtl Color_001
vt -11.811 196.85
vn 1 7.19239e-016 6.74035e-013
vt -19.685 188.976
vt -11.811 3.93701
f 38/78/27 31/79/27 40/80/27

vt -82.6772 196.85
f 35/81/27 31/79/27 38/78/27

vt -82.6772 188.976
f 31/79/27 35/81/27 33/82/27

usemtl BackColor
vn -1 -7.19239e-016 -6.74035e-013
f 33/82/28 35/81/28 31/79/28

f 38/78/28 31/79/28 35/81/28

f 40/80/28 31/79/28 38/78/28

usemtl Color_001
vt -19.685 3.93701
f 40/80/27 31/79/27 30/83/27

usemtl BackColor
f 30/83/28 31/79/28 40/80/28

usemtl FrontColor
vt -972.441 -11.811
f 28/51/5 30/53/5 40/84/5

usemtl Color_004
f 40/84/6 30/53/6 28/51/6

usemtl FrontColor
v 25 0.1 -0
f 28/51/5 40/84/5 41/39/5

usemtl Color_004
f 41/39/6 40/84/6 28/51/6

usemtl FrontColor
vt -964.567 -11.811
f 39/85/5 41/39/5 40/84/5

f 27/50/5 41/39/5 39/85/5

v 0 0.1 -0
f 41/39/5 27/50/5 42/42/5

usemtl Color_004
f 42/42/6 27/50/6 41/39/6

f 39/85/6 41/39/6 27/50/6

f 40/84/6 41/39/6 39/85/6

usemtl FrontColor
f 27/50/5 39/85/5 29/52/5

usemtl Color_004
f 29/52/6 39/85/6 27/50/6

usemtl FrontColor
v 0 0 -0
f 43/42/17 41/44/17 42/40/17

v 25 0 -0
f 41/44/17 43/42/17 44/45/17

usemtl Color_004
f 44/45/18 43/42/18 41/44/18

f 42/40/18 41/44/18 43/42/18

usemtl BackColor
f 38/67/2 35/64/2 37/65/2

f 37/76/26 39/75/26 38/74/26

f 31/53/6 32/52/6 33/58/6

usemtl FrontColor
f 22/47/5 26/51/5 24/49/5

usemtl Color_008
f 24/49/6 26/51/6 22/47/6

usemtl FrontColor
f 24/49/5 26/51/5 23/48/5

usemtl Color_008
f 23/48/6 26/51/6 24/49/6

usemtl FrontColor
v 18.75 0 12.35
vt -738.189 -486.22
f 23/48/5 26/51/5 45/86/5

usemtl Color_008
f 45/86/6 26/51/6 23/48/6

usemtl FrontColor
v 25 0 12.35
vt -984.252 -486.22
f 45/86/5 26/51/5 46/87/5

usemtl Color_008
f 46/87/6 26/51/6 45/86/6

usemtl FrontColor
v 18.75 0 12.5
vt -738.189 -492.126
f 46/87/5 47/88/5 45/86/5

v 25 0 12.5
vt -984.252 -492.126
f 47/88/5 46/87/5 48/89/5

usemtl Color_000
f 45/86/6 47/88/6 46/87/6

usemtl FrontColor
f 47/88/5 23/48/5 45/86/5

f 20/14/5 23/48/5 47/88/5

usemtl Color_008
f 47/88/6 23/48/6 20/14/6

f 45/86/6 23/48/6 47/88/6

usemtl FrontColor
f 20/14/5 47/88/5 48/89/5

usemtl Color_008
f 48/89/6 47/88/6 20/14/6

usemtl Color_000
f 48/89/6 46/87/6 47/88/6

f 23/48/6 24/49/6 21/46/6

usemtl Color_004
f 9/40/18 10/44/18 19/42/18

f 12/43/6 10/14/6 7/11/6

usemtl BackColor
f 3/36/14 1/33/14 6/34/14

