# Alias OBJ Model File
# Exported from SketchUp, (c) 2000-2006 Google, Inc.
# File units = meters

mtllib road_c0.mtl

g Mesh1 Model

usemtl Color_004
v 2 -1.26334e-015 25
vt 78.7402 -984.252
vn 0 1 1.26606e-017
v -1.15506e-014 -1.23802e-015 23
vt -4.54747e-013 -905.512
v -1.15506e-014 -1.26334e-015 25
vt -4.54747e-013 -984.252
f 1/1/1 2/2/1 3/3/1

v 2 -1.23802e-015 23
vt 78.7402 -905.512
f 2/2/1 1/1/1 4/4/1

usemtl Color_007
v 23 -1.44382e-015 25
vt 905.512 -984.252
vn 1.47619e-017 1 9.7126e-018
f 5/5/2 4/4/2 1/1/2

v 23 -1.45881e-015 2
vt 905.512 -78.7402
f 6/6/2 4/4/2 5/5/2

v -5.02199e-016 -7.96867e-016 2
vt -1.97716e-014 -78.7402
f 7/7/2 4/4/2 6/6/2

f 4/4/2 7/7/2 2/2/2

usemtl Color_004
vn 9.41486e-018 1 3.46223e-017
v 0 0 -0
vt 0 0
f 6/6/3 8/8/3 7/7/3

v 25 0 -0
vt 984.252 3.20831e-031
f 8/8/3 6/6/3 9/9/3

v 25 -1.44382e-015 25
vt 984.252 -984.252
f 9/9/3 6/6/3 10/10/3

f 10/10/3 6/6/3 5/5/3

