# Alias OBJ Model File
# Exported from SketchUp, (c) 2000-2006 Google, Inc.
# File units = meters

mtllib road_ew.mtl

g Mesh1 Model

usemtl Color_001
v 24.7 5 2.1
vt 972.441 -82.6772
vn 0 1 -0
v 24.5 5 0.3
vt 964.567 -11.811
v 24.5 5 2.1
vt 964.567 -82.6772
f 1/1/1 2/2/1 3/3/1

v 24.7 5 0.3
vt 972.441 -11.811
f 2/2/1 1/1/1 4/4/1

vt -82.6772 196.85
vn 1 7.19239e-016 6.74035e-013
v 24.7 4.8 0.5
vt -19.685 188.976
vt -11.811 196.85
f 1/5/2 5/6/2 4/7/2

v 24.7 4.8 2.1
vt -82.6772 188.976
f 5/6/2 1/5/2 6/8/2

vt 972.441 196.85
vn -7.64888e-013 0 1
v 24.5 4.8 2.1
vt 964.567 188.976
vt 972.441 188.976
f 1/9/3 7/10/3 6/11/3

vt 964.567 196.85
f 7/10/3 1/9/3 3/12/3

vt 11.811 196.85
vn -1 -7.08845e-016 -7.62855e-013
vt 82.6772 188.976
vt 82.6772 196.85
f 2/13/4 7/14/4 3/15/4

v 24.5 4.8 0.5
vt 19.685 188.976
f 7/14/4 2/13/4 8/16/4

v 24.5 0.1 0.5
vt 19.685 3.93701
f 8/16/4 2/13/4 9/17/4

v 24.5 0.1 0.3
vt 11.811 3.93701
f 9/17/4 2/13/4 10/18/4

vt -972.441 196.85
vn 9.74129e-013 -1.14865e-027 -1
vt -964.567 3.93701
vt -964.567 196.85
f 4/19/5 10/20/5 2/21/5

v 24.7 0.1 0.3
vt -972.441 3.93701
f 10/20/5 4/19/5 11/22/5

vt -11.811 3.93701
f 4/7/2 5/6/2 11/23/2

v 24.7 0.1 0.5
vt -19.685 3.93701
f 11/23/2 5/6/2 12/24/2

vt 972.441 188.976
vn -2.63046e-013 -3.78953e-031 1
vt 964.567 3.93701
vt 972.441 3.93701
f 5/25/6 9/26/6 12/27/6

vt 964.567 188.976
f 9/26/6 5/25/6 8/28/6

vt -972.441 -82.6772
vn 0 -1 -0
vt -964.567 -19.685
vt -972.441 -19.685
f 6/29/7 8/30/7 5/31/7

vt -964.567 -82.6772
f 8/30/7 6/29/7 7/32/7

g Mesh2 Model

usemtl Color_007
v 0 -3.06812e-015 23
vt 0 -905.512
vn 0 1 1.249e-016
v 6.25 -3.60956e-015 12.65
vt 246.063 -498.031
v 0 -2.88765e-015 2
vt 0 -78.7402
f 13/33/8 14/34/8 15/35/8

v 25 -3.06812e-015 23
vt 984.252 -905.512
f 14/34/8 13/33/8 16/36/8

usemtl Color_004
v 25 -1.08287e-014 25
vt 984.252 -984.252
f 13/33/8 17/37/8 16/36/8

v 0 -1.08287e-014 25
vt 0 -984.252
f 17/37/8 13/33/8 18/38/8

usemtl Color_007
v 12.5 -3.60956e-015 12.65
vt 492.126 -498.031
f 14/34/8 16/36/8 19/39/8

v 12.5 0 12.5
vt 492.126 -492.126
f 19/39/8 16/36/8 20/40/8

v 18.75 -3.60956e-015 12.65
vt 738.189 -498.031
f 20/40/8 16/36/8 21/41/8

v 25 -3.60956e-015 12.65
vt 984.252 -498.031
f 21/41/8 16/36/8 22/42/8

usemtl FrontColor
vn 0 1 2.40637e-014
v 18.75 0 12.5
vt 738.189 -492.126
f 22/42/9 23/43/9 21/41/9

v 25 0 12.5
vt 984.252 -492.126
f 23/43/9 22/42/9 24/44/9

usemtl Color_007
v 25 -2.88765e-015 2
vt 984.252 -78.7402
f 25/45/8 23/43/8 24/44/8

f 25/45/8 20/40/8 23/43/8

v 6.25 0 12.5
vt 246.063 -492.126
f 25/45/8 26/46/8 20/40/8

f 15/35/8 26/46/8 25/45/8

f 26/46/8 15/35/8 14/34/8

usemtl FrontColor
vn -2.25918e-032 1 2.40637e-014
f 19/39/10 26/46/10 14/34/10

f 26/46/10 19/39/10 20/40/10

usemtl Color_004
v 0 -1.6243e-015 2.12061e-015
vt 0 -8.34888e-014
f 25/45/8 27/47/8 15/35/8

v 25 -1.6243e-015 2.12061e-015
vt 984.252 -8.34888e-014
f 27/47/8 25/45/8 28/48/8

usemtl Color_007
f 23/43/8 20/40/8 21/41/8

g Mesh3 Model

usemtl Color_001
v 0.659821 5 24.7037
vt 25.9772 -972.588
v 0.459821 5 22.9037
vt 18.1032 -901.722
v 0.459821 5 24.7037
vt 18.1032 -972.588
f 29/49/1 30/50/1 31/51/1

v 0.659821 5 22.9037
vt 25.9772 -901.722
f 30/50/1 29/49/1 32/52/1

vt -972.588 196.85
vn 1 -7.08845e-016 7.6264e-013
v 0.659821 4.8 24.5037
vt -964.714 188.976
vt -901.722 196.85
f 29/53/11 33/54/11 32/55/11

v 0.659821 0.1 24.5037
vt -964.714 3.93701
f 29/53/11 34/56/11 33/54/11

v 0.659821 0.1 24.7037
vt -972.588 3.93701
f 34/56/11 29/53/11 35/57/11

vt 18.1032 196.85
vn -9.66921e-013 -1.14063e-027 1
vt 25.9772 3.93701
vt 25.9772 196.85
f 31/58/12 35/59/12 29/60/12

v 0.459821 0.1 24.7037
vt 18.1032 3.93701
f 35/59/12 31/58/12 36/61/12

vt 972.588 196.85
vn -1 7.19239e-016 -6.74127e-013
v 0.459821 4.8 24.5037
vt 964.714 188.976
vt 972.588 3.93701
f 31/62/13 37/63/13 36/64/13

vt 901.722 196.85
f 37/63/13 31/62/13 30/65/13

v 0.459821 4.8 22.9037
vt 901.722 188.976
f 37/63/13 30/65/13 38/66/13

vt -18.1032 196.85
vn 1.73139e-013 1.41086e-043 -1
v 0.659821 4.8 22.9037
vt -25.9772 188.976
vt -18.1032 188.976
f 30/67/14 39/68/14 38/69/14

vt -25.9772 196.85
f 39/68/14 30/67/14 32/70/14

vt -901.722 188.976
f 32/55/11 33/54/11 39/71/11

vt -25.9772 -964.714
vt -18.1032 -901.722
vt -25.9772 -901.722
f 33/72/7 38/73/7 39/74/7

vt -18.1032 -964.714
f 38/73/7 33/72/7 37/75/7

vt -25.9772 3.93701
vn 2.59515e-013 -1.91606e-046 -1
vt -18.1032 188.976
vt -25.9772 188.976
f 34/76/15 37/77/15 33/78/15

v 0.459821 0.1 24.5037
vt -18.1032 3.93701
f 37/77/15 34/76/15 40/79/15

vt 964.714 3.93701
f 40/80/13 36/64/13 37/63/13

