# Alias OBJ Model File
# Exported from SketchUp, (c) 2000-2006 Google, Inc.
# File units = meters

mtllib road_t1.mtl

g Mesh1 Model

usemtl Color_004
v 2 -1.26334e-015 25
vt 78.7402 -984.252
vn 0 1 1.26606e-017
v -1.15506e-014 -1.23802e-015 23
vt -4.54747e-013 -905.512
v -1.15506e-014 -1.26334e-015 25
vt -4.54747e-013 -984.252
f 1/1/1 2/2/1 3/3/1

v 2 -1.23802e-015 23
vt 78.7402 -905.512
f 2/2/1 1/1/1 4/4/1

usemtl Color_007
v 23 -1.44382e-015 25
vt 905.512 -984.252
vn 1.36363e-017 1 8.96533e-018
f 5/5/2 4/4/2 1/1/2

v 23 -1.41307e-015 23
vt 905.512 -905.512
f 6/6/2 4/4/2 5/5/2

v 25 -1.48608e-015 2
vt 984.252 -78.7402
f 7/7/2 4/4/2 6/6/2

v -5.02199e-016 -7.96867e-016 2
vt -1.97716e-014 -78.7402
f 8/8/2 4/4/2 7/7/2

f 4/4/2 8/8/2 2/2/2

usemtl Color_004
vn 1.37843e-017 1 5.70737e-016
v 0 0 -0
vt 0 0
f 7/7/3 9/9/3 8/8/3

v 25 0 -0
vt 984.252 7.7433e-030
f 9/9/3 7/7/3 10/10/3

usemtl Color_007
v 25 -1.41307e-015 23
vt 984.252 -905.512
f 7/7/2 6/6/2 11/11/2

usemtl Color_004
vn -5.63835e-034 1 1.53746e-017
v 25 -1.44382e-015 25
vt 984.252 -984.252
f 6/6/4 12/12/4 11/11/4

f 12/12/4 6/6/4 5/5/4

