# Alias OBJ Model File
# Exported from SketchUp, (c) 2000-2006 Google, Inc.
# File units = meters

mtllib road_t0.mtl

g Mesh1 Model

usemtl Color_004
v 2 -3.61774e-017 2
vt 78.7402 -78.7402
vn 2.71405e-018 1 1.53746e-017
v 0 0 -0
vt 0 0
v -2.31012e-014 -3.07493e-017 2
vt -9.09495e-013 -78.7402
f 1/1/1 2/2/1 3/3/1

v 2 -5.4281e-018 -3.60956e-015
vt 78.7402 1.42109e-013
f 2/2/1 1/1/1 4/4/1

usemtl Color_007
vn 6.4093e-018 1 2.9011e-017
v 2 -5.34094e-016 23
vt 78.7402 -905.512
f 1/1/2 5/5/2 4/4/2

v 0 -5.34094e-016 23
vt 1.34771e-031 -905.512
f 1/1/2 6/6/2 5/5/2

f 6/6/2 1/1/2 3/3/2

usemtl Color_004
vt -1.22538e-045 -905.512
vn -5.82756e-032 1 1.53746e-017
v 2 -5.64844e-016 25
vt 78.7402 -984.252
f 6/7/3 7/8/3 5/5/3

v -2.88765e-014 -5.64844e-016 25
vt -1.13687e-012 -984.252
f 7/8/3 6/7/3 8/9/3

usemtl Color_007
v 23 -9.60718e-016 25
vt 905.512 -984.252
f 9/10/2 5/5/2 7/8/2

v 23 1.12861e-016 1.29944e-014
vt 905.512 -5.11591e-013
f 10/11/2 5/5/2 9/10/2

f 4/4/2 5/5/2 10/11/2

usemtl Color_004
v 25 4.94613e-016 25
vt 984.252 -984.252
vn -5.55362e-016 1 2.91589e-017
f 11/12/4 10/11/4 9/10/4

v 25 8.78979e-016 8.66294e-015
vt 984.252 -3.41061e-013
f 10/11/4 11/12/4 12/13/4

