# Alias OBJ Model File
# Exported from SketchUp, (c) 2000-2006 Google, Inc.
# File units = meters

mtllib road_t2.mtl

g Mesh1 Model

usemtl Color_004
v 25 8.18773e-017 2
vt 984.252 -78.7402
vn 2.71405e-018 1 1.53746e-017
v 23 1.18055e-016 3.97051e-015
vt 905.512 -1.56319e-013
v 23 8.73054e-017 2
vt 905.512 -78.7402
f 1/1/1 2/2/1 3/3/1

v 25 1.12627e-016 2.59888e-014
vt 984.252 -1.02318e-012
f 2/2/1 1/1/1 4/4/1

usemtl Color_007
vn -1.09223e-017 1 1.90699e-017
v 2 -3.07493e-017 2
vt 78.7402 -78.7402
f 2/2/2 5/5/2 3/3/2

v 2 -5.4281e-018 2.74326e-014
vt 78.7402 -1.08002e-012
f 5/5/2 2/2/2 6/6/2

usemtl Color_004
v 0 -3.58663e-030 -0
vt 3.83241e-046 -1.78775e-045
vn 2.71405e-018 1 1.26606e-017
f 7/7/3 5/5/3 6/6/3

v -5.77529e-015 -2.53212e-017 2
vt -2.27374e-013 -78.7402
f 5/5/3 7/7/3 8/8/3

usemtl Color_007
v 2.59888e-014 -6.87068e-016 23
vt 1.02318e-012 -905.512
f 9/9/2 5/5/2 8/8/2

v 25 -6.57057e-017 23
vt 984.252 -905.512
f 5/5/2 9/9/2 10/10/2

usemtl Color_004
vn -1.10702e-017 1 -5.42702e-016
v 25 6.75091e-016 25
vt 984.252 -984.252
f 9/9/4 11/11/4 10/10/4

v -1.44382e-014 7.42943e-016 25
vt -5.68434e-013 -984.252
f 11/11/4 9/9/4 12/12/4

usemtl Color_007
f 5/5/2 10/10/2 3/3/2

f 3/3/2 10/10/2 1/1/2

