# Alias OBJ Model File
# Exported from SketchUp, (c) 2000-2006 Google, Inc.
# File units = meters

mtllib road_c1.mtl

g Mesh1 Model

usemtl Color_004
v 2 -1.13168e-016 2
vt 78.7402 -78.7402
vn 3.13766e-017 1 2.52074e-017
v 0 0 -0
vt 0 0
v 0 -5.04148e-017 2
vt 6.22773e-032 -78.7402
f 1/1/1 2/2/1 3/3/1

v 2 -6.27531e-017 5.77529e-015
vt 78.7402 -2.27374e-013
f 2/2/1 1/1/1 4/4/1

usemtl Color_007
vn 3.30442e-017 1 4.22269e-017
v 23 -5.46377e-016 1.15506e-014
vt 905.512 -4.54747e-013
f 1/1/2 5/5/2 4/4/2

v 23 -1.78809e-015 23
vt 905.512 -905.512
f 5/5/2 1/1/2 6/6/2

vt 6.55874e-032 -78.7402
f 3/7/2 6/6/2 1/1/2

v -1.53406e-014 -7.60249e-016 23
vt -6.03961e-013 -905.512
f 6/6/2 3/7/2 7/8/2

usemtl Color_004
vn 9.32291e-018 1 3.46661e-017
v 25 -4.67769e-016 25
vt 984.252 -984.252
f 7/8/3 8/9/3 6/6/3

v -1.98526e-014 -8.10663e-016 25
vt -7.81597e-013 -984.252
f 8/9/3 7/8/3 9/10/3

f 6/6/3 8/9/3 5/5/3

v 25 1.62416e-016 5.77529e-015
vt 984.252 -2.27374e-013
f 5/5/3 8/9/3 10/11/3

