# Alias OBJ Model File
# Exported from SketchUp, (c) 2000-2006 Google, Inc.
# File units = meters

mtllib road_t3.mtl

g Mesh1 Model

usemtl Color_004
v 25 -1.39905e-015 25
vt 984.252 -984.252
vn 2.71405e-018 1 1.53746e-017
v 23 -1.36287e-015 23
vt 905.512 -905.512
v 23 -1.39362e-015 25
vt 905.512 -984.252
f 1/1/1 2/2/1 3/3/1

v 25 -1.3683e-015 23
vt 984.252 -905.512
f 2/2/1 1/1/1 4/4/1

usemtl Color_007
v 25 -1.22591e-015 2
vt 984.252 -78.7402
vn -9.81199e-019 1 1.7383e-018
f 5/5/2 2/2/2 4/4/2

v 23 -1.21505e-015 2
vt 905.512 -78.7402
f 6/6/2 2/2/2 5/5/2

f 6/6/2 3/3/2 2/2/2

v 2 -1.46619e-015 4.0427e-014
vt 78.7402 -1.59162e-012
f 7/7/2 3/3/2 6/6/2

v 2 -1.16134e-015 25
vt 78.7402 -984.252
f 3/3/2 7/7/2 8/8/2

usemtl Color_004
v 0 0 -0
vt 0 0
vn 5.6079e-016 1 1.59037e-018
f 9/9/3 8/8/3 7/7/3

v -3.42908e-014 -3.84366e-016 25
vt -1.35003e-012 -984.252
f 8/8/3 9/9/3 10/10/3

usemtl Color_007
v 23 -1.1843e-015 -5.77529e-015
vt 905.512 2.27374e-013
f 11/11/2 7/7/2 6/6/2

usemtl Color_004
vn 5.4281e-018 1 1.53746e-017
f 5/5/4 11/11/4 6/6/4

v 25 -1.19516e-015 5.77529e-015
vt 984.252 -2.27374e-013
f 11/11/4 5/5/4 12/12/4

