# Blender v2.62 (sub 0) OBJ File: ''
# www.blender.org
o Mesh.001_Mesh2_Model
v -0.000014 0.100000 0.000000
v 24.999987 0.100004 -1.999985
v -0.000013 0.100000 -2.000000
v 18.349886 0.100003 -0.492689
v 18.349886 0.100003 -0.292688
v 18.549887 0.100003 -0.292688
v 24.999987 0.100004 0.000015
v 18.549887 0.100003 -0.492689
v 18.549885 5.100003 -0.492689
v 18.349884 5.100003 -0.492689
v 18.349884 5.300003 -0.292688
v 18.549885 5.300003 -0.292688
v 18.549887 5.300003 -1.892689
v 18.549887 5.100003 -1.892689
v 18.349886 5.100003 -1.892689
v 18.349886 5.300003 -1.892689
v 24.999987 0.000004 0.000015
v 24.999987 0.000004 -1.999985
v -0.000013 0.000000 -2.000000
v -0.000014 0.000000 0.000000
vt 866.142029 0.000000
vt 787.401978 984.252014
vt 787.401978 0.000000
vt 846.744019 722.435974
vt 854.617981 722.435974
vt 854.617981 730.309998
vt 866.142029 984.252014
vt 846.744019 730.309998
vt -722.435974 3.937010
vt -730.309998 200.787003
vt -730.309998 3.937010
vt -722.435974 200.787003
vt 846.744019 3.937010
vt 854.617981 208.660995
vt 846.744019 200.787003
vt 854.617981 3.937010
vt 730.309998 3.937010
vt 722.435974 208.660995
vt 722.435974 3.937010
vt 730.309998 208.660995
vt -854.617981 3.937010
vt -846.744019 200.787003
vt -854.617981 208.660995
vt -846.744019 3.937010
vt -791.625977 208.660995
vt -791.625977 200.787003
vt -730.309998 208.660995
vt -722.435974 208.660995
vt 791.625977 200.787003
vt 791.625977 208.660995
vt 791.625977 730.309998
vt 791.625977 722.435974
vt -866.142029 0.000000
vt -787.401978 3.937010
vt -866.142029 3.937010
vt -787.401978 0.000000
vt 0.000000 0.000000
vt -984.252014 3.937010
vt -984.252014 0.000000
vt 0.000000 3.937010
vt 866.142029 3.937010
vt 787.401978 3.937010
vt 984.252014 0.000000
vt 984.252014 3.937010
vn -0.000000 1.000000 0.000000
vn -0.000000 1.000000 -0.000001
vn -0.000000 0.000000 -1.000000
vn -1.000000 -0.000000 0.000000
vn -0.000000 -0.000000 1.000000
vn 1.000000 0.000000 -0.000000
vn 1.000000 -0.000001 0.000001
vn 1.000000 0.000000 0.000001
vn -1.000000 0.000000 -0.000001
vn -1.000000 0.000001 -0.000001
vn 0.000001 0.000000 -1.000000
vn -0.000001 -0.000000 1.000000
s off
f 1/1/1 2/2/1 3/3/1
f 2/2/1 1/1/1 4/4/1
f 4/4/1 1/1/1 5/5/1
f 5/5/2 1/1/2 6/6/2
f 6/6/1 1/1/1 7/7/1
f 7/7/1 8/8/1 6/6/1
f 2/2/1 8/8/1 7/7/1
f 8/8/1 2/2/1 4/4/1
f 4/9/3 9/10/3 8/11/3
f 9/10/3 4/9/3 10/12/3
f 4/13/4 11/14/4 10/15/4
f 11/14/4 4/13/4 5/16/4
f 6/17/5 11/18/5 5/19/5
f 11/18/5 6/17/5 12/20/5
f 6/21/6 9/22/6 12/23/6
f 9/22/6 6/21/6 8/24/6
f 12/23/7 9/22/7 13/25/7
f 13/25/8 9/22/8 14/26/8
f 15/12/3 13/27/3 14/10/3
f 13/27/3 15/12/3 16/28/3
f 15/29/9 11/14/9 16/30/9
f 10/15/10 11/14/10 15/29/10
f 11/5/1 13/31/1 16/32/1
f 13/31/1 11/5/1 12/6/1
f 17/33/6 2/34/6 7/35/6
f 2/34/6 17/33/6 18/36/6
f 19/37/11 2/38/11 18/39/11
f 2/38/11 19/37/11 3/40/11
f 19/3/9 1/41/9 3/42/9
f 1/41/9 19/3/9 20/1/9
f 17/43/12 1/40/12 20/37/12
f 1/40/12 17/43/12 7/44/12
o Mesh_Mesh1_Model
v -0.000000 0.100000 -22.000000
v 4.467500 0.100001 -21.582844
v 25.000000 0.100004 -21.999985
v -0.000001 0.100000 -20.000000
v 0.000000 0.000000 -22.000000
v -0.000001 0.000000 -20.000000
v 24.999998 0.000004 -19.999985
v 24.999998 0.100004 -19.999985
v 25.000000 0.000004 -21.999985
v 4.667500 0.100001 -21.582844
v 4.667499 5.300001 -21.582844
v 4.467499 5.300001 -21.582844
v 4.467499 5.100001 -21.382845
v 4.467500 0.100001 -21.382845
v 4.667500 0.100001 -21.382845
v 4.667499 5.100001 -21.382845
v 4.667498 5.100001 -19.982847
v 4.667498 5.300001 -19.982847
v 4.467498 5.300001 -19.982847
v 4.467498 5.100001 -19.982847
vt 0.000000 0.000000
vt 16.423300 175.886002
vt 0.000000 984.252014
vt 78.740196 0.000000
vt 78.740196 3.937010
vt 0.000000 3.937010
vt 984.252014 0.000000
vt 984.252014 3.937010
vt -78.740196 0.000000
vt -78.740196 3.937010
vt -984.252014 3.937010
vt -984.252014 0.000000
vt 16.423300 183.759995
vt 78.740196 984.252014
vt -175.886002 3.937010
vt -183.759995 208.660995
vt -183.759995 3.937010
vt -175.886002 208.660995
vt 16.423300 3.937010
vt 24.297400 200.787003
vt 16.423300 208.660995
vt 24.297400 3.937010
vt 24.297400 175.886002
vt 24.297400 183.759995
vt -16.423300 208.660995
vt -24.297400 3.937010
vt -16.423300 3.937010
vt -24.297400 200.787003
vt -79.415497 200.787003
vt -79.415497 208.660995
vt 79.415497 175.886002
vt 79.415497 183.759995
vt 79.415497 208.660995
vt 79.415497 200.787003
vt 183.759995 200.787003
vt 175.886002 208.660995
vt 175.886002 200.787003
vt 183.759995 208.660995
vt 183.759995 3.937010
vt 175.886002 3.937010
vn -0.000000 1.000000 0.000001
vn -1.000000 -0.000000 -0.000002
vn 1.000000 0.000000 0.000003
vn 1.000000 -0.000002 0.000000
vn 1.000000 0.000002 0.000001
vn -1.000000 -0.000002 -0.000000
s off
f 21/45/1 22/46/1 23/47/1
f 22/46/1 21/45/1 24/48/1
f 24/49/9 21/50/9 25/45/9
f 24/49/9 25/45/9 26/48/9
f 27/51/12 24/50/12 26/45/12
f 24/50/12 27/51/12 28/52/12
f 27/53/8 23/50/8 28/54/8
f 23/50/8 27/53/8 29/45/8
f 25/45/11 23/55/11 29/56/11
f 25/45/11 21/50/11 23/55/11
f 23/47/1 30/57/1 28/58/1
f 30/57/13 23/47/13 22/46/13
f 22/59/3 31/60/3 30/61/3
f 31/60/3 22/59/3 32/62/3
f 22/63/14 33/64/14 32/65/14
f 33/64/4 22/63/4 34/66/4
f 22/46/1 24/48/1 34/67/1
f 34/67/1 24/48/1 35/68/1
f 28/58/1 35/68/1 24/48/1
f 28/58/1 30/57/1 35/68/1
f 31/69/6 35/70/6 30/71/6
f 35/70/15 31/69/15 36/72/15
f 36/72/16 31/69/16 37/73/16
f 37/73/17 31/69/17 38/74/17
f 31/57/1 39/75/1 38/76/1
f 39/75/1 31/57/1 32/46/1
f 32/65/10 33/64/10 39/77/10
f 39/77/18 33/64/18 40/78/18
f 37/79/5 39/80/5 40/81/5
f 39/80/5 37/79/5 38/82/5
f 33/81/5 35/83/5 36/79/5
f 35/83/5 33/81/5 34/84/5
