# Alias OBJ Model File
# Exported from SketchUp, (c) 2000-2006 Google, Inc.
# File units = meters

mtllib road_c2.mtl

g Mesh1 Model

usemtl Color_004
v 23 -3.64938e-016 2
vt 905.512 -78.7402
vn 1.87816e-017 1 5.67198e-017
v 25 -2.89062e-016 2.88765e-014
vt 984.252 -1.13687e-012
v 23 -2.51499e-016 4.33147e-014
vt 905.512 -1.7053e-012
f 1/1/1 2/2/1 3/3/1

v 25 -4.02502e-016 2
vt 984.252 -78.7402
f 2/2/1 1/1/1 4/4/1

usemtl Color_007
vn 1.7621e-018 1 5.83874e-017
v 25 -1.41833e-015 23
vt 984.252 -905.512
f 1/1/2 5/5/2 4/4/2

v 2 -3.75632e-017 2.88765e-014
vt 78.7402 -1.13687e-012
f 6/6/2 5/5/2 1/1/2

v 2 -1.6483e-015 23
vt 78.7402 -905.512
f 5/5/2 6/6/2 7/7/2

usemtl Color_004
vn 9.32291e-018 1 3.46661e-017
v 0 0 -0
vt 0 0
f 6/6/3 8/8/3 7/7/3

v -4.69242e-015 -2.90686e-016 25
vt -1.84741e-013 -984.252
f 9/9/3 7/7/3 8/8/3

v 25 -7.60226e-016 25
vt 984.252 -984.252
f 7/7/3 9/9/3 10/10/3

f 7/7/3 10/10/3 5/5/3

usemtl Color_007
f 6/6/2 1/1/2 3/3/2

