# Alias OBJ Model File
# Exported from SketchUp, (c) 2000-2006 Google, Inc.
# File units = meters

mtllib stadium_0.mtl

g Mesh1 Model

usemtl Color_004
v 25 0 0.01
vt -814.289 -384.874
vn 0.403522 0.696117 -0.593794
v 7.55025 25 17.4597
vt -632.215 986.086
v 15.5549 25 22.8994
vt -1013.24 986.086
f 1/1/1 2/2/1 3/3/1

vt -553.539 -566.532
vn 0.593794 0.696117 -0.403522
v 2.11057 25 9.45511
vt -354.588 804.428
vt -735.613 804.428
f 1/4/2 4/5/2 2/6/2

vt -215.028 -670.837
vn 0.698442 0.698442 -0.156071
v 0 25 0.01
vt -0.384225 704.456
vt -381.41 704.456
f 1/7/3 5/8/3 4/9/3

vt 0.384225 984.252
vn -0.975931 -7.25205e-017 0.218078
v 2.11057 -2.88765e-015 9.45511
vt 381.41 -1.13681e-013
vn -0.917772 -1.18481e-016 0.397107
vt 381.41 984.252
f 5/10/4 6/11/5 4/12/5

v 0 0 0.01
vt 0.384225 6.22642e-018
f 6/11/5 5/10/4 7/13/4

v 7.55025 -5.77529e-015 17.4597
vt 735.613 -2.04859e-013
vn -0.707107 -1.47078e-016 0.707107
vt 354.588 984.252
vt 354.588 -9.11724e-014
f 8/14/6 4/15/5 6/16/5

vt 735.613 984.252
f 4/15/5 8/14/6 2/17/6

v 15.5549 -2.88765e-015 22.8994
vt 1013.24 -6.2018e-014
vn -0.397107 -1.12459e-017 0.917772
vt 632.215 984.252
vt 632.215 -1.75705e-013
f 9/18/7 2/19/6 8/20/6

vt 1013.24 984.252
f 2/19/6 9/18/7 3/21/7

v 25 0 25.01
vt 1175.29 -7.95625e-014
vn -0.218078 1.06609e-016 0.975931
vt 794.266 984.252
vt 794.266 -1.93249e-013
f 10/22/8 3/23/7 9/24/7

v 25 25 25.01
vt 1175.29 984.252
f 3/23/7 10/22/8 11/25/8

vt -1175.29 1225.65
vn 0.156071 0.698442 -0.698442
vt -960.648 -149.648
vt -794.266 1225.65
f 11/26/9 1/27/9 3/28/9

