# Alias OBJ Model File
# Exported from SketchUp, (c) 2000-2006 Google, Inc.
# File units = meters

mtllib stadium_5.mtl

g Mesh1 Model

usemtl Color_000
v 25 25 -1.15506e-014
vt -1.13687e-012 984.252
vn -1 0 -6.93035e-016
v 25 0 25
vt 984.252 0
v 25 25 25
vt 984.252 984.252
f 1/1/1 2/2/1 3/3/1

v 25 0 -1.15506e-014
vt -1.13687e-012 0
f 2/2/1 1/1/1 4/4/1

usemtl Color_004
vn 1 -0 6.93035e-016
f 3/3/2 2/2/2 1/1/2

f 4/4/2 1/1/2 2/2/2

usemtl Color_000
vt -984.252 1391.94
vn 0.707107 -0.707107 2.5492e-016
v 0 0 -0
vt 0 0
vt 8.09581e-013 1391.94
f 3/5/3 5/6/3 1/7/3

v 0 0 25
vt -984.252 2.50905e-013
f 5/6/3 3/5/3 6/8/3

usemtl Color_004
vn -0.707107 0.707107 -2.5492e-016
f 6/8/4 3/5/4 5/6/4

f 1/7/4 5/6/4 3/5/4

