# Alias OBJ Model File
# Exported from SketchUp, (c) 2000-2006 Google, Inc.
# File units = meters

mtllib stadium_1.mtl

g Mesh1 Model

usemtl Color_004
v 22.8894 0 9.44511
vt 198.951 2.49783e-013
vn 0.917772 -1.84917e-016 0.397107
v 17.4497 25 17.4497
vt -182.074 984.252
vn 0.707107 -2.28087e-016 0.707107
v 17.4497 0 17.4497
vt -182.074 2.49783e-013
f 1/1/1 2/2/2 3/3/2

v 22.8894 25 9.44511
vt 198.951 984.252
f 2/2/2 1/1/1 4/4/1

vt -166.382 9.75452e-014
v 25 25 2.59888e-014
vt 214.643 984.252
vn 0.975931 -1.0155e-016 0.218078
vt -166.382 984.252
f 1/5/1 5/6/3 4/7/1

v 25 0 2.59888e-014
vt 214.643 9.75452e-014
f 5/6/3 1/5/1 6/8/3

vt -214.643 1375.29
vn -0.698442 0.698442 -0.156071
v 0 0 -0
vt 0 0
vt 166.382 1375.29
f 5/9/4 7/10/4 4/11/4

vt -198.951 1370.96
vn -0.593794 0.696117 -0.403522
vt 182.074 1370.96
f 4/12/5 7/10/5 2/13/5

vt -182.074 1370.96
vn -0.403522 0.696117 -0.593794
v 9.44511 25 22.8894
vt 198.951 1370.96
f 2/14/6 7/10/6 8/15/6

vt -166.382 1375.29
vn -0.156071 0.698442 -0.698442
v -4.62023e-014 25 25
vt 214.643 1375.29
f 8/16/7 7/10/7 9/17/7

v -4.62023e-014 0 25
vt -214.643 2.18265e-013
vn 0.218078 -2.27226e-016 0.975931
vt 166.382 984.252
vn 0.397107 -2.10523e-016 0.917772
vt -214.643 984.252
f 10/18/8 8/19/9 9/20/8

v 9.44511 0 22.8894
vt 166.382 2.18265e-013
f 8/19/9 10/18/8 11/21/9

vt -198.951 1.77853e-013
vt 182.074 984.252
vt -198.951 984.252
f 11/22/9 2/23/2 8/24/9

vt 182.074 1.77853e-013
f 2/23/2 11/22/9 3/25/2

