# Alias OBJ Model File
# Exported from SketchUp, (c) 2000-2006 Google, Inc.
# File units = meters

mtllib stadium_3.mtl

g Mesh1 Model

usemtl Color_004
v 2.11057 25 15.5549
vt 459.806 984.252
vn -0.917772 -9.5441e-017 -0.397107
v 7.55025 0 7.55025
vt 78.7807 -5.57819e-014
vn -0.707107 -1.19354e-016 -0.707107
v 2.11057 0 15.5549
vt 459.806 -5.57819e-014
f 1/1/1 2/2/2 3/3/1

v 7.55025 25 7.55025
vt 78.7807 984.252
f 2/2/2 1/1/1 4/4/2

v 25 0 25
vt -260.855 -951.788
vn 0.593794 0.696117 0.403522
vt -78.7807 419.173
vt -459.806 419.173
f 5/5/3 4/6/3 1/7/3

vt 260.855 -951.788
vn 0.403522 0.696117 0.593794
v 15.5549 25 2.11057
vt 459.806 419.173
vt 78.7807 419.173
f 5/8/4 6/9/4 4/10/4

vt 745.919 -820.813
vn 0.156071 0.698442 0.698442
v 25 25 9.38485e-015
vt 960.562 554.481
vt 579.537 554.481
f 5/11/5 7/12/5 6/13/5

v 25 0 9.38485e-015
vt -960.562 -2.35997e-014
vn -0.218078 -1.09948e-016 -0.975931
vt -579.537 984.252
vn -0.397107 -1.06558e-016 -0.917772
vt -960.562 984.252
f 8/14/6 6/15/7 7/16/6

v 15.5549 0 2.11057
vt -579.537 -2.35997e-014
f 6/15/7 8/14/6 9/17/7

vt -459.806 -4.10423e-014
vt -78.7807 984.252
vt -459.806 984.252
f 9/18/7 4/19/2 6/20/7

vt -78.7807 -4.10423e-014
f 4/19/2 9/18/7 2/21/2

vt -745.919 -820.813
vn 0.698442 0.698442 0.156071
vt -579.537 554.481
v -9.38485e-015 25 25
vt -960.562 554.481
f 5/22/8 1/23/8 10/24/8

vt 579.537 984.252
v -9.38485e-015 0 25
vt 960.562 -1.12501e-014
vn -0.975931 -5.2413e-017 -0.218078
vt 960.562 984.252
f 1/25/1 11/26/9 10/27/9

vt 579.537 -1.12501e-014
f 11/26/9 1/25/1 3/28/1

