# Alias OBJ Model File
# Exported from SketchUp, (c) 2000-2006 Google, Inc.
# File units = meters

mtllib stadium_7.mtl

g Mesh1 Model

usemtl Color_000
v 0 0 -0
vt 0 0
vn 1 0 2.77556e-016
v -7.76055e-015 25 25
vt -984.252 984.252
v -7.76055e-015 0 25
vt -984.252 0
f 1/1/1 2/2/1 3/3/1

v 0 25 -0
vt 0 984.252
f 2/2/1 1/1/1 4/4/1

usemtl Color_004
vn -1 -0 -2.77556e-016
f 3/3/2 2/2/2 1/1/2

f 4/4/2 1/1/2 2/2/2

usemtl Color_000
vt 0 695.971
vn -0.707107 -0.707107 1.80411e-016
v 25 0 25
vt 984.252 -695.971
vt 984.252 695.971
f 4/5/3 5/6/3 2/7/3

v 25 0 -2.88765e-015
vt 1.37435e-013 -695.971
f 5/6/3 4/5/3 6/8/3

usemtl Color_004
vn 0.707107 0.707107 -1.80411e-016
f 2/7/4 5/6/4 4/5/4

f 6/8/4 4/5/4 5/6/4

