# Alias OBJ Model File
# Exported from SketchUp, (c) 2000-2006 Google, Inc.
# File units = meters

mtllib stadium01.mtl

g Mesh1 Model

usemtl FrontColor
v 47.8894 25 34.4451
vt 61.9032 2322.75
vn -0.593794 0.696117 -0.403522
v 25 0 25
vt 260.855 951.788
v 42.4497 25 42.4497
vt 442.929 2322.75
f 1/1/1 2/2/1 3/3/1

usemtl BackColor
vn 0.593794 -0.696117 0.403522
f 3/3/2 2/2/2 1/1/2

usemtl FrontColor
vt -442.929 2322.75
vn -0.403522 0.696117 -0.593794
vt -260.855 951.788
v 34.4451 25 47.8894
vt -61.9032 2322.75
f 3/4/3 2/5/3 4/6/3

usemtl BackColor
vn 0.403522 -0.696117 0.593794
f 4/6/4 2/5/4 3/4/4

usemtl FrontColor
vt -912.301 2196.11
vn -0.156071 0.698442 -0.698442
vt -745.919 820.813
v 25 25 50
vt -531.276 2196.11
f 4/7/5 2/8/5 5/9/5

usemtl BackColor
vn 0.156071 -0.698442 0.698442
f 5/9/6 2/8/6 4/7/6

usemtl FrontColor
v -25 25 50
vt -984.252 2087.91
vn 2.77556e-017 -0.707107 0.707107
vt 984.252 695.971
vt 984.252 2087.91
f 6/10/7 2/11/7 5/12/7

v -25 0 25
vt -984.252 695.971
f 2/11/7 6/10/7 7/13/7

usemtl BackColor
vn -2.77556e-017 0.707107 -0.707107
f 7/13/8 6/10/8 2/11/8

usemtl FrontColor
vt 531.276 2196.11
vn 0.156071 0.698442 -0.698442
vt 745.919 820.813
v -34.4451 25 47.8894
vt 912.301 2196.11
f 6/14/9 7/15/9 8/16/9

usemtl BackColor
vn -0.156071 -0.698442 0.698442
f 8/16/10 7/15/10 6/14/10

usemtl FrontColor
vt 260.855 951.788
vn 0.403522 0.696117 -0.593794
v -42.4497 25 42.4497
vt 442.929 2322.75
vt 61.9032 2322.75
f 7/17/11 9/18/11 8/19/11

usemtl BackColor
vn -0.403522 -0.696117 0.593794
f 8/19/12 9/18/12 7/17/12

usemtl FrontColor
v -42.4497 0 42.4497
vt -442.929 0
vn -0.707107 0 0.707107
vt -61.9032 984.252
vn -0.397107 0 0.917772
vt -442.929 984.252
f 10/20/13 8/21/14 9/22/13

v -34.4451 0 47.8894
vt -61.9032 0
f 8/21/14 10/20/13 11/23/14

usemtl BackColor
vn 0.397107 -0 -0.917772
vn 0.707107 -0 -0.707107
f 11/23/15 10/20/16 8/21/15

f 9/22/16 8/21/15 10/20/16

usemtl FrontColor
v -47.8894 25 34.4451
vt 61.9032 984.252
vn -0.917772 0 0.397107
vt 442.929 0
vt 442.929 984.252
f 12/24/17 10/25/13 9/26/13

v -47.8894 0 34.4451
vt 61.9032 0
f 10/25/13 12/24/17 13/27/17

usemtl BackColor
vn 0.917772 -0 -0.397107
f 9/26/16 10/25/16 12/24/18

f 13/27/18 12/24/18 10/25/16

usemtl FrontColor
v -50 25 25
vt 531.276 984.252
vn -0.975931 0 0.218078
vt 912.301 0
vt 912.301 984.252
f 14/28/19 13/29/17 12/30/17

v -50 0 25
vt 531.276 0
f 13/29/17 14/28/19 15/31/19

usemtl BackColor
vn 0.975931 -0 -0.218078
f 12/30/18 13/29/18 14/28/20

f 15/31/20 14/28/20 13/29/18

usemtl FrontColor
v -50 0 -25
vt 984.252 0
vn 1 0 -8.32667e-017
vt -984.252 984.252
vt -984.252 0
f 16/32/21 14/33/21 15/34/21

v -50 25 -25
vt 984.252 984.252
f 14/33/21 16/32/21 17/35/21

usemtl BackColor
vn -1 -0 8.32667e-017
f 15/34/22 14/33/22 16/32/22

f 17/35/22 16/32/22 14/33/22

usemtl FrontColor
v -25 0 -25
vt -984.252 695.971
vn -0.707107 -0.707107 -0
vt 984.252 2087.91
vt -984.252 2087.91
f 18/36/23 14/37/23 17/38/23

vt 984.252 695.971
f 14/37/23 18/36/23 7/39/23

usemtl BackColor
vn 0.707107 0.707107 0
f 7/39/24 18/36/24 14/37/24

usemtl FrontColor
v 25 0 -25
vt -984.252 984.252
vn 0 -1 -0
vt 984.252 -984.252
vt 984.252 984.252
f 19/40/25 7/41/25 18/42/25

vt -984.252 -984.252
f 7/41/25 19/40/25 2/43/25

usemtl BackColor
vn -0 1 0
f 18/42/26 7/41/26 19/40/26

f 2/43/26 19/40/26 7/41/26

usemtl FrontColor
v 50 25 -25
vt 984.252 2087.91
vn 0.707107 -0.707107 2.77556e-017
vt -984.252 695.971
vt 984.252 695.971
f 20/44/27 2/45/27 19/46/27

v 50 25 25
vt -984.252 2087.91
f 2/45/27 20/44/27 21/47/27

usemtl BackColor
vn -0.707107 0.707107 -2.77556e-017
f 19/46/28 2/45/28 20/44/28

f 21/47/28 20/44/28 2/45/28

usemtl FrontColor
vn -1 0 8.32667e-017
v 50 0 25
vt 984.252 984.252
f 20/33/29 22/32/29 21/48/29

v 50 0 -25
f 22/32/29 20/33/29 23/34/29

usemtl BackColor
vn 1 -0 -8.32667e-017
f 21/48/30 22/32/30 20/33/30

usemtl FrontColor
vt -912.301 984.252
vn 0.917772 0 0.397107
vt -531.276 0
vn 0.975931 0 0.218078
vt -531.276 984.252
f 1/49/31 22/50/32 21/51/32

v 47.8894 0 34.4451
vt -912.301 0
f 22/50/32 1/49/31 24/52/31

usemtl BackColor
vn -0.917772 -0 -0.397107
vn -0.975931 -0 -0.218078
f 24/52/33 1/49/33 22/50/34

usemtl FrontColor
vt -442.929 984.252
vn 0.707107 0 0.707107
vt -61.9032 0
vt -61.9032 984.252
f 3/53/35 24/54/31 1/55/31

v 42.4497 0 42.4497
vt -442.929 0
f 24/54/31 3/53/35 25/56/35

usemtl BackColor
vn -0.707107 -0 -0.707107
f 25/56/36 3/53/36 24/54/33

usemtl FrontColor
vt 442.929 984.252
v 34.4451 0 47.8894
vt 61.9032 0
vn 0.397107 0 0.917772
vt 442.929 0
f 3/57/35 26/58/37 25/59/35

vt 61.9032 984.252
f 26/58/37 3/57/35 4/60/37

usemtl BackColor
vn -0.397107 -0 -0.917772
f 25/59/36 26/58/38 3/57/36

f 4/60/38 3/57/36 26/58/38

usemtl FrontColor
vt 912.301 984.252
v 25 0 50
vt 531.276 0
vn 0.218078 0 0.975931
vt 912.301 0
f 4/61/37 27/62/39 26/63/37

vt 531.276 984.252
f 27/62/39 4/61/37 5/64/39

usemtl BackColor
vn -0.218078 -0 -0.975931
f 26/63/38 27/62/40 4/61/38

f 5/64/40 4/61/38 27/62/40

usemtl FrontColor
vt -984.252 0
vn -8.32667e-017 0 -1
vt 984.252 984.252
vt -984.252 984.252
f 27/65/41 6/66/41 5/67/41

v -25 0 50
vt 984.252 0
f 6/66/41 27/65/41 28/68/41

usemtl BackColor
vn 8.32667e-017 -0 1
f 28/68/42 27/65/42 6/66/42

f 5/67/42 6/66/42 27/65/42

f 5/12/8 2/11/8 6/10/8

usemtl FrontColor
vt -531.276 984.252
vn -0.218078 0 0.975931
vt -912.301 0
vt -531.276 0
f 6/69/43 11/70/14 28/71/43

vt -912.301 984.252
f 11/70/14 6/69/43 8/72/14

usemtl BackColor
vn 0.218078 -0 -0.975931
f 28/71/44 11/70/15 6/69/44

f 8/72/15 6/69/44 11/70/15

f 1/55/33 24/54/33 3/53/36

f 21/51/34 22/50/34 1/49/33

usemtl FrontColor
vt 531.276 2196.11
vn -0.698442 0.698442 -0.156071
vt 745.919 820.813
vt 912.301 2196.11
f 21/73/45 2/74/45 1/75/45

usemtl BackColor
vn 0.698442 -0.698442 0.156071
f 1/75/46 2/74/46 21/73/46

f 23/34/30 20/33/30 22/32/30

f 17/38/24 14/37/24 18/36/24

usemtl FrontColor
vt -531.276 2196.11
vn 0.698442 0.698442 -0.156071
vt -912.301 2196.11
vt -745.919 820.813
f 14/76/47 12/77/47 7/78/47

usemtl BackColor
vn -0.698442 -0.698442 0.156071
f 7/78/48 12/77/48 14/76/48

usemtl FrontColor
vt -260.855 951.788
vn 0.593794 0.696117 -0.403522
vt -61.9032 2322.75
vt -442.929 2322.75
f 7/79/49 12/80/49 9/81/49

usemtl BackColor
vn -0.593794 -0.696117 0.403522
f 9/81/50 12/80/50 7/79/50

