# Alias OBJ Model File
# Exported from SketchUp, (c) 2000-2006 Google, Inc.
# File units = meters

mtllib tree.mtl

g Mesh1 Model

usemtl Color_G11
v -1.80478e-016 1.5 -1.35358e-016
vt -5.32907e-015 57.9723
vn -0.981665 0.190615 -0
v -1.80478e-016 1.5 3
vt 118.11 57.9723
v 1.5 9.225 1.5
vt 59.0551 367.787
f 1/1/1 2/2/1 3/3/1

usemtl BackColor
vn 0.981665 -0.190615 0
f 3/3/2 2/2/2 1/1/2

usemtl Color_G11
vt 59.0551 345.273
vn 8.03899e-018 0.190615 0.981665
vt -8.07265e-015 35.4588
v 3 1.5 3
vt 118.11 35.4588
f 3/4/3 2/5/3 4/6/3

usemtl BackColor
vn -8.03899e-018 -0.190615 -0.981665
f 4/6/4 2/5/4 3/4/4

usemtl Color_G11
v 3 1.5 -1.35358e-016
vt 5.32907e-015 35.4588
vn 0.981665 0.190615 -0
vt -59.0551 345.273
vt -118.11 35.4588
f 5/7/5 3/8/5 4/9/5

vt -59.0551 367.787
vn 8.03899e-018 0.190615 -0.981665
vt -118.11 57.9723
vt 7.10543e-015 57.9723
f 3/10/6 5/11/6 1/12/6

usemtl BackColor
vn -8.03899e-018 -0.190615 0.981665
f 1/12/7 5/11/7 3/10/7

vn -0.981665 -0.190615 0
f 4/9/8 3/8/8 5/7/8

g Mesh2 Model

usemtl FrontColor
v 1.84973 1.5 1.13646
vt -72.8239 -44.7425
vn 0 -1 -0
v 1.09973 1.5 1.88646
vt -43.2963 -74.27
v 1.09973 1.5 1.13646
vt -43.2963 -44.7425
f 6/13/9 7/14/9 8/15/9

v 1.84973 1.5 1.88646
vt -72.8239 -74.27
f 7/14/9 6/13/9 9/16/9

usemtl BackColor
vn -0 1 0
f 8/15/10 7/14/10 6/13/10

usemtl FrontColor
vt -74.27 59.0551
vn 1 0 -0
v 1.09973 0 1.13646
vt -44.7425 0
vt -44.7425 59.0551
f 7/17/11 10/18/11 8/19/11

v 1.09973 0 1.88646
vt -74.27 0
f 10/18/11 7/17/11 11/20/11

usemtl Color_C16
vn -1 -0 0
f 11/20/12 7/17/12 10/18/12

usemtl FrontColor
vt -43.2963 59.0551
vn 0 0 -1
v 1.84973 0 1.88646
vt -72.8239 0
vt -43.2963 0
f 7/21/13 12/22/13 11/23/13

vt -72.8239 59.0551
f 12/22/13 7/21/13 9/24/13

usemtl Color_C16
vn -0 -0 1
f 11/23/14 12/22/14 7/21/14

f 9/24/14 7/21/14 12/22/14

usemtl BackColor
f 9/16/10 6/13/10 7/14/10

usemtl FrontColor
vt 44.7425 59.0551
vn -1 4.55601e-017 1.15362e-016
vt 74.27 3.31786e-015
vt 74.27 59.0551
f 6/25/15 12/26/15 9/27/15

v 1.84973 0 1.13646
vt 44.7425 3.31786e-015
f 12/26/15 6/25/15 13/28/15

usemtl Color_C16
vn 1 -4.55601e-017 -1.15362e-016
f 9/27/16 12/26/16 6/25/16

f 13/28/16 6/25/16 12/26/16

usemtl FrontColor
vt 72.8239 59.0551
vn 0 0 1
vt 43.2963 0
vt 72.8239 0
f 6/29/17 10/30/17 13/31/17

vt 43.2963 59.0551
f 10/30/17 6/29/17 8/32/17

usemtl Color_C16
vn -0 -0 -1
f 13/31/18 10/30/18 6/29/18

f 8/32/18 6/29/18 10/30/18

f 8/19/12 10/18/12 7/17/12

