# Blender3D v249 OBJ File: 
# www.blender3d.org
mtllib untitled.mtl
v 0.011144 0.032416 0.550178
v -0.023602 0.031348 -0.749562
v -0.033296 0.014050 -0.112996
v -0.014940 0.015109 0.716978
v 0.038291 0.001160 -0.749562
v 0.015715 -0.022346 -0.749495
v 0.015981 0.035216 -0.749562
v -0.036008 0.014079 0.536797
v 0.005666 -0.034141 0.551784
v -0.035918 -0.006774 0.247061
v 0.001332 -0.013475 0.740271
v -0.024925 -0.013015 -0.749457
v -0.004641 -0.020259 -0.734550
v 0.003997 0.004399 0.748748
v -0.004215 0.030234 0.646970
v -0.015195 -0.030249 0.552593
v -0.006580 -0.038541 -0.749562
v -0.033529 -0.011690 0.550957
v -0.019951 -0.031099 -0.116325
v -0.033828 -0.012335 -0.114201
v -0.011739 -0.034469 0.245447
v -0.009401 -0.023096 0.698733
v 0.004641 0.020258 -0.734547
v 0.023169 -0.003050 -0.734314
v -0.023165 0.003050 -0.734304
v 0.025740 0.010227 -0.749679
v -0.006704 0.006246 0.745845
v 0.025266 -0.026879 0.247772
v 0.038005 -0.009310 -0.120659
v 0.000201 0.016005 0.734824
v -0.037889 -0.008728 -0.749562
v 0.026535 -0.027600 -0.749562
v -0.016035 0.032880 -0.119364
v 0.019238 0.025072 0.645274
v -0.024976 0.018924 0.648888
v -0.029142 -0.010466 0.651340
v 0.035918 0.006774 0.247061
v -0.015583 0.031778 0.550440
v 0.013069 -0.027742 0.655650
v 0.030691 0.017719 0.546466
v 0.032756 -0.013568 0.549186
v 0.011739 0.034469 0.245447
v 0.008542 0.035339 -0.113375
v -0.025266 0.026879 0.247772
v 0.029056 -0.006515 0.677769
v -0.015969 -0.004872 0.731778
v 0.032840 0.015868 -0.108645
v 0.016118 0.004275 0.733124
v 0.010335 -0.035401 -0.112822
v -0.009393 0.025644 -0.749472
vn -0.466641 0.876554 0.117895
vn 0.407341 -0.667056 -0.623787
vn -0.951351 0.293332 0.094270
vn 0.621615 0.500381 -0.602673
vn 0.687306 -0.726317 0.008589
vn -0.995711 -0.092300 0.006334
vn -0.141626 -0.989882 0.008644
vn 0.979949 0.199214 0.003762
vn -0.001721 -0.011384 -0.999934
vn -0.735894 0.677058 0.007191
vn -0.002494 0.007548 -0.999968
vn -0.253283 0.952858 0.167064
vn -0.753443 -0.657496 -0.004713
vn -0.711487 -0.702698 0.001650
vn -0.201496 0.979444 -0.009408
vn 0.601754 0.798655 0.006556
vn -0.941923 0.335789 -0.005220
vn -0.182949 -0.983056 0.011448
vn -0.803904 -0.594757 0.001761
vn -0.974649 0.163423 0.152816
vn 0.201554 -0.979422 -0.010402
vn -0.923798 0.380951 -0.038401
vn 0.602200 0.798278 0.010397
vn 0.605894 -0.795292 0.020066
vn 0.007053 -0.003225 -0.999970
vn 0.891861 -0.358216 0.276162
vn -0.961752 0.013657 0.273581
vn -0.658225 0.752769 0.008873
vn -0.543116 -0.776237 0.320125
vn -0.712602 -0.700445 0.039684
vn 0.836482 0.547968 -0.005462
vn 0.154011 -0.970595 0.185003
vn 0.594717 0.777323 0.205137
vn 0.901063 0.413762 0.129951
vn -0.693947 0.294329 0.657121
vn -0.099273 0.995059 -0.001226
vn 0.753585 0.657261 -0.010871
vn -0.988764 0.143620 0.041464
vn -0.689586 -0.724178 -0.006049
vn 0.605145 -0.796093 0.005914
vn 0.001305 0.011600 -0.999932
vn 0.501468 -0.286636 0.816315
vn 0.625746 0.780018 -0.003686
vn 0.313703 -0.949514 -0.003651
vn 0.222677 0.964056 0.144952
vn 0.752978 0.657965 0.010308
vn -0.401177 0.657089 -0.638194
vn 0.564395 0.703258 0.432304
vn 0.017741 0.011622 -0.999775
vn -0.097255 0.995259 -0.001329
vn 0.916056 -0.400639 -0.018170
vn 0.005549 -0.001978 -0.999983
vn 0.776729 0.143134 0.613356
vn 0.952685 -0.302236 -0.032306
vn 0.012438 0.013062 -0.999837
vn -0.077591 -0.994744 0.066815
vn -0.495245 0.780758 0.380984
vn 0.218524 0.974187 0.056637
vn -0.023787 0.999695 0.006690
vn -0.143916 -0.989155 0.029336
vn 0.201745 -0.979342 -0.013704
vn -0.560860 -0.428727 0.708258
vn 0.997631 0.067152 0.014963
vn -0.647094 -0.519967 -0.557587
vn -0.000004 0.004121 -0.999992
vn -0.803249 -0.595509 0.012683
vn 0.997373 0.068005 0.024966
vn 0.925647 -0.378342 -0.005878
vn -0.005139 0.002100 -0.999985
vn -0.753136 -0.657839 0.005769
vn -0.999773 0.020432 -0.006098
vn -0.472265 0.878699 0.069670
vn 0.660843 -0.719666 0.212995
vn 0.729784 -0.378761 0.569170
vn 0.767994 -0.637908 0.057087
vn 0.001242 -0.012705 -0.999919
vn -0.999782 0.019857 0.006502
vn -0.953391 0.301556 0.010498
vn 0.220811 0.960993 0.166538
vn -0.738374 0.674349 -0.007544
vn 0.004309 -0.006973 -0.999966
vn -0.401146 -0.914803 0.047081
vn -0.888186 0.302167 0.346152
vn -0.102858 0.994602 0.013670
vn -0.200685 0.979647 0.004162
vn -0.004639 0.002882 -0.999985
vn -0.953014 0.302124 -0.022040
vn -0.640564 -0.765328 0.062858
vn -0.023664 0.999544 0.018776
vn 0.953265 -0.301957 -0.010353
vn -0.977162 0.150991 0.149519
vn -0.787497 -0.592366 0.170151
vn 0.624449 0.781033 0.007151
vn -0.181039 -0.981923 0.055244
vn 0.789504 -0.540927 0.289970
vn 0.925682 0.369795 0.079774
usemtl FrontColor
s off
f 4//1 15//1 35//1
f 25//2 50//2 23//2
f 24//3 26//3 6//3
f 12//4 25//4 13//4
f 49//5 32//5 29//5
f 10//6 18//6 8//6
f 49//7 19//7 17//7
f 5//8 47//8 29//8
f 24//9 25//9 23//9
f 3//10 33//10 2//10
f 32//11 17//11 6//11
f 15//12 4//12 30//12
f 21//13 18//13 10//13
f 18//14 21//14 16//14
f 44//15 38//15 42//15
f 42//16 1//16 40//16
f 3//17 2//17 31//17
f 16//18 21//18 9//18
f 31//19 19//19 20//19
f 35//20 46//20 4//20
f 28//21 9//21 21//21
f 35//22 38//22 18//22
f 1//23 34//23 40//23
f 9//24 28//24 41//24
f 12//25 31//25 50//25
f 25//26 12//26 50//26
f 30//27 11//27 14//27
f 38//28 44//28 8//28
f 46//29 22//29 11//29
f 18//30 16//30 36//30
f 47//31 5//31 7//31
f 22//32 39//32 11//32
f 48//33 34//33 30//33
f 48//34 45//34 34//34
f 8//35 18//35 38//35
f 43//36 2//36 33//36
f 42//37 40//37 37//37
f 18//38 36//38 35//38
f 19//39 31//39 17//39
f 41//40 39//40 9//40
f 24//41 13//41 25//41
f 29//42 47//42 49//42
f 42//43 47//43 43//43
f 32//44 49//44 17//44
f 15//45 30//45 34//45
f 47//46 42//46 37//46
f 24//47 6//47 13//47
f 14//48 48//48 30//48
f 5//49 26//49 7//49
f 2//50 43//50 7//50
f 37//51 49//51 47//51
f 50//52 31//52 2//52
f 30//53 27//53 11//53
f 49//54 37//54 28//54
f 31//55 12//55 17//55
f 22//56 9//56 39//56
f 4//57 27//57 30//57
f 34//58 1//58 15//58
f 1//59 42//59 38//59
f 49//60 28//60 19//60
f 21//61 19//61 28//61
f 46//62 11//62 27//62
f 37//63 40//63 41//63
f 26//64 24//64 23//64
f 12//65 6//65 17//65
f 19//66 21//66 20//66
f 45//67 41//67 40//67
f 29//68 32//68 5//68
f 32//69 6//69 5//69
f 20//70 21//70 10//70
f 10//71 3//71 20//71
f 15//72 38//72 35//72
f 39//73 45//73 11//73
f 48//74 14//74 11//74
f 41//75 45//75 39//75
f 50//76 2//76 7//76
f 31//77 20//77 3//77
f 3//78 10//78 44//78
f 13//79 6//79 12//79
f 3//80 44//80 33//80
f 5//81 6//81 26//81
f 23//82 50//82 26//82
f 27//83 4//83 46//83
f 33//84 44//84 43//84
f 42//85 43//85 44//85
f 26//86 50//86 7//86
f 8//87 44//87 10//87
f 36//88 16//88 22//88
f 15//89 1//89 38//89
f 41//90 28//90 37//90
f 46//91 35//91 36//91
f 36//92 22//92 46//92
f 47//93 7//93 43//93
f 9//94 22//94 16//94
f 45//95 48//95 11//95
f 40//96 34//96 45//96
